<?xml version="1.0" encoding="UTF-8"?>
<svg width="94px" height="94px" viewBox="0 0 94 94" version="1.1" xmlns="http://www.w3.org/2000/svg" xmlns:xlink="http://www.w3.org/1999/xlink">
    <!-- Generator: Sketch 61 (89581) - https://sketch.com -->
    <title>Group</title>
    <desc>Created with Sketch.</desc>
    <g id="Symbols" stroke="none" stroke-width="1" fill="none" fill-rule="evenodd">
        <g id="desktop/footer/without-insta-v4-" transform="translate(-673.000000, -314.000000)">
            <g id="desktop/footer/without-insta">
                <g id="newsletter">
                    <g id="Group-4" transform="translate(462.000000, 40.000000)">
                        <g id="sign-up" transform="translate(0.000000, 155.000000)">
                            <g id="Group" transform="translate(211.000000, 119.000000)">
                                <circle id="Oval" fill="#FFFFFF" cx="47" cy="47" r="47"></circle>
                                <path d="M49.4990485,46.5256015 C49.5220902,46.6317035 49.5349403,46.7422459 49.5349403,46.8558264 C49.5349403,46.9116819 49.5313954,46.9668362 49.5254135,47.0210557 C48.8751514,46.7205113 48.4109951,46.5106444 48.2718589,46.4501148 C48.1418065,46.393792 48.0698014,46.3886505 48.0478675,46.4258095 C48.021281,46.4706809 48.0786635,46.4961547 48.1998538,46.5833266 C48.4273901,46.7473874 48.8758161,47.0124086 49.4547376,47.3388943 C49.2661949,47.8981499 48.7614941,48.2989537 48.1666206,48.2989537 C47.4108987,48.2989537 46.7983009,47.6529936 46.7983009,46.8558264 C46.7983009,46.0584256 47.4108987,45.4122317 48.1666206,45.4122317 C48.4096657,45.4122317 48.6409685,45.4734624 48.8357148,45.5961574 C48.9225641,45.6510781 48.9947908,45.6314469 49.0187187,45.593353 C49.054832,45.5360953 49.0395448,45.4645816 48.9797251,45.4229822 C48.6812914,45.2145175 48.3279122,45.0824742 47.9428507,45.0824742 C46.9345568,45.0824742 46.1170213,45.944845 46.1170213,47.0084357 C46.1170213,48.07226 46.9345568,48.9346308 47.9428507,48.9346308 C48.7960565,48.9346308 49.5103478,48.3167152 49.7108545,47.482389 C52.0533487,48.7897338 56.1394757,50.9176162 57.2224333,51.7652636 C58.2652897,52.5818282 60.3529964,54.129889 61.323626,54.9665522 C61.4175651,55.0474141 61.3322666,55.2037626 61.2181662,55.1607609 C59.9892041,54.6954546 57.744637,53.9232939 55.3733407,52.4855419 C54.5110511,51.9627442 51.6545508,49.8668793 50.6081496,48.8752698 C50.2421418,48.5282181 50.0688863,48.4001479 50.018815,48.4466551 C49.9718455,48.4903579 50.1273767,48.6901756 50.4083076,49.046108 C51.222963,50.0774474 53.2521793,52.6921369 54.7049112,53.5208542 C56.4401249,54.5112952 57.4643707,54.7213959 60.0388323,55.6216268 C61.4359541,56.1100699 64.7029946,57.5931607 65.9705071,58.1916788 C66.1264813,58.2655295 66.2485578,58.0386021 66.1092001,57.9343698 C63.4297217,55.9291824 58.3372949,51.8694959 57.3340967,51.0361045 C56.4230652,50.2793683 52.1116175,48.2208963 49.7629198,47.1311307 C49.7653568,47.0904661 49.7689017,47.0500351 49.7689017,47.0084357 C49.7689017,46.8266133 49.7416505,46.6518021 49.7002199,46.484002 C49.6818309,46.4087491 49.6304302,46.3489207 49.566401,46.3638778 C49.5023718,46.3788349 49.4808811,46.4426363 49.4990485,46.5256015 L49.4990485,46.5256015 Z M78.4746117,52.1279471 C78.3669561,51.9483324 78.2360235,51.9389379 78.2015558,52.1279471 C77.890675,53.8388722 76.4842133,55.4381812 75.1122193,55.690268 C75.0249309,55.7065966 75.0775277,55.8289494 75.1659352,55.8365545 C77.3951456,56.030932 78.2700436,54.5117004 78.4325343,53.4358016 C78.4349962,53.4190256 78.4569302,53.413881 78.4674496,53.4275255 C79.8902499,55.2831712 79.2454351,58.2688462 75.6648217,57.9505501 C72.1976832,57.642096 70.8227796,56.5438293 67.7027802,53.8442405 C67.6208635,53.7731104 67.5071648,53.880924 67.572743,53.9672643 C71.576593,59.2499048 77.6735731,60.1267287 79.4515699,57.3624965 C80.8980947,55.1136221 79.095702,53.1629125 78.4746117,52.1279471 L78.4746117,52.1279471 Z M71.716325,42.2141533 C71.675113,42.2675327 71.731665,42.3477387 71.7834089,42.3096888 C72.4961468,41.7898553 73.9790903,41.6398455 75.0911262,41.1495761 C76.2668117,40.6311114 76.5816252,38.8591884 76.5388106,38.2498418 C76.5328577,38.1614236 76.428912,38.1469154 76.408306,38.231775 C75.9762674,40.0031504 74.5340779,40.569246 73.6503105,40.9387958 C72.9879428,41.216095 71.9390985,41.9253569 71.716325,42.2141533 L71.716325,42.2141533 Z M72.1375329,37.287469 C72.1121025,37.3209949 72.0603494,37.30481 72.0567802,37.2624979 C72.0277806,36.9249264 71.9392204,36.0148705 71.7953379,35.5078195 C71.6179944,34.8826185 71.4225819,34.5519834 70.7212384,34.4016947 C70.0201179,34.2516372 69.6977765,34.0666665 69.4918795,34.0428515 C69.2859826,34.0192677 69.1106467,33.9954528 69.0421631,34.3431977 C68.9734564,34.6907114 68.8440737,35.7179925 69.3471047,35.8285125 C69.8501358,35.9390325 70.2008076,35.8363737 70.2846832,35.9549862 C70.3609744,36.0627317 70.532295,36.5029619 70.6030093,36.8255046 C70.6148322,36.8791461 70.592971,36.9341749 70.5467948,36.9612269 C70.3495977,37.077296 69.7972673,37.4095496 69.3323819,37.7510518 C69.1579383,37.879144 68.9370954,37.9182191 68.7316446,37.8571788 C68.4371874,37.7693177 67.8772726,37.6897803 67.0374003,37.6534798 C65.5738142,37.5903585 64.9411773,37.7959072 64.2779794,38.6412233 C64.0263524,38.9572921 64.0341599,39.1152108 64.3085405,39.3443433 C64.5829211,39.5734757 64.9536695,39.6978685 65.1214208,39.7531285 C65.2891722,39.8086197 65.5448146,39.8530127 65.7656575,39.5528977 C65.9691007,39.2765977 66.5461922,38.9554423 67.6526374,39.1223784 C67.7208979,39.1325518 67.766405,39.0574074 67.7115288,39.0144018 C67.4991627,38.8481593 67.1335451,38.6488534 66.5655996,38.5945182 C65.9450087,38.5353276 65.4424238,38.90735 65.3192872,39.0932455 C65.2909568,39.13602 65.2412114,39.1547483 65.1928044,39.1415691 C65.1004519,39.1165981 64.9509926,39.0701242 64.8452557,39.008159 C64.7897103,38.9755579 64.7752106,38.8990263 64.809787,38.8435351 C65.0011842,38.5381022 65.8029108,37.6592601 68.4717638,38.2844611 C68.5284245,38.2978715 68.5545241,38.3676979 68.5190554,38.4150967 C68.3800805,38.600761 68.1369303,39.0759045 68.2411057,40.0497753 C68.2540439,40.1688502 68.2141137,40.2865378 68.136038,40.3748613 C67.6582142,40.9179816 66.0607839,42.9639888 67.2254514,45.7256015 C67.2508818,45.7861795 67.2477588,45.8560059 67.2129593,45.9110347 C66.9383556,46.3438661 65.8417256,48.4442086 67.815035,51.8435078 C70.0406407,55.6779506 74.7350023,56.5547118 75.9342462,53.9632721 C76.8341252,52.0185363 75.003806,50.5588862 74.079835,50.2483666 C73.9908286,50.2185401 73.9366218,50.3487132 74.0182667,50.3949559 C74.7113565,50.7882499 75.9625765,51.9695191 75.2748405,53.4867413 C74.5237516,54.9843104 72.5644958,54.6055829 71.8555678,54.41067 C71.7935533,54.3935602 71.7971225,54.3010749 71.8604754,54.289283 C72.5515575,54.1595723 74.3542156,53.6703248 74.3865613,52.0969176 C74.3881228,52.0245479 74.3013472,51.9873225 74.255394,52.0416576 C73.8045622,52.5722924 72.1846014,54.2148323 70.1524006,53.1706726 C68.8373815,52.4948359 68.2627438,51.7644328 67.8348886,50.7882499 C67.815035,50.7427008 67.8547421,50.6953021 67.9013645,50.7050131 C69.1907301,50.973683 70.0923938,50.2002742 70.3803818,49.9066332 C70.4270042,49.8590033 70.4923648,49.8805061 70.5345257,49.9322979 C70.7785683,50.233569 71.0081111,50.6610825 72.2055703,50.8083654 C73.9513446,51.0374979 74.3691615,49.5057092 74.7849708,48.3852491 C75.0903586,47.5630543 76.3554092,47.2254828 76.8979243,47.9047877 C76.9499004,47.9699899 77.0710294,47.8906837 77.0299839,47.8176203 C76.4089469,46.7080272 74.3660385,46.8712639 73.8902224,48.6909132 C73.6187418,49.7283677 73.2421935,50.3262855 72.2361314,50.2788868 C71.1522166,50.1642049 70.9637194,49.4837439 70.8700285,49.15334 C70.8445981,49.0631668 70.8952358,48.9683693 70.9826807,48.942011 C72.0030195,48.631029 71.9840582,48.4183127 72.6323102,47.6479096 C73.1714792,47.0076798 73.9560292,45.1454872 76.1999269,45.8388961 C78.4150481,46.5232877 78.1698902,48.8673291 78.1038604,49.8217779 C78.0958297,49.9403904 78.2459583,49.9625869 78.2901269,49.8527605 C78.941948,48.2294113 78.7853503,46.0328841 76.2684105,45.2541574 C74.2259483,44.6222513 73.2879236,45.4911512 72.510512,46.542016 C71.8475371,47.4377367 71.4616198,47.8113775 71.0835099,48.0585446 C71.0027573,48.1112613 70.8992511,48.0451342 70.9106279,47.9466373 C70.9697424,47.4331124 71.1276785,46.2872189 71.3672596,44.7642163 C71.6947317,42.6784403 74.9420146,43.4132365 76.3522862,42.7101165 C77.7625577,42.0069966 77.6708744,40.8296581 77.7395811,39.4391408 C77.8082878,38.0486234 76.8858783,37.9064272 76.8247561,37.8354447 C76.763857,37.764231 76.8707093,37.3216885 77.0154841,36.5871236 C77.1419668,35.9443504 77.2396731,35.1327914 77.2365501,34.458342 C77.236327,34.413949 77.1752048,34.4053941 77.1629358,34.4479374 C76.9253623,35.2874732 76.2345033,36.9836546 76.1463892,37.6930172 C76.0473445,38.4909346 76.3065561,38.3725534 76.7332959,38.5385646 C77.1602589,38.7043446 77.19082,39.6920882 76.9543619,40.9165943 C76.7181269,42.1413316 75.6206046,42.3152041 74.3093778,42.4809841 C73.5210356,42.580637 73.1056725,42.6534693 72.898214,42.6876888 C72.4157057,42.7674575 72.0603494,42.9447981 71.8321451,43.105029 C71.0850715,43.5397102 70.8124755,44.2400555 70.6126015,45.3253712 C70.4116121,46.4134614 70.532295,47.3808582 70.4332503,48.4474455 C70.338444,49.4684839 69.0515322,50.4777303 67.7322747,50.1017773 C67.6254224,50.0712572 67.5382006,49.988714 67.5056319,49.8791188 C67.4989397,49.8566911 67.4935859,49.833801 67.4857783,49.8118357 C67.0414156,48.5658268 67.0097392,47.1311477 67.31825,46.2962362 C67.3592956,46.1852538 67.4346945,46.1813231 67.487786,46.2865252 C67.5645233,46.4375076 67.8273041,47.0465236 67.9323717,47.2146158 C67.9930478,47.3117254 68.1387149,47.2513787 68.1146229,47.1383153 C67.8911031,46.0936933 67.1156992,43.4865311 68.314943,41.3938187 C68.3675884,41.3013334 68.502548,41.3091946 68.554078,41.4021424 C68.647992,41.5702345 68.8193125,41.8083843 69.1128774,42.0197134 C69.1913994,42.0761294 69.2953517,42.0039909 69.2705905,41.9082685 C69.1748919,41.5353213 69.0091482,40.814398 68.9734564,40.1713935 C68.9228187,39.2548637 68.8311354,38.938795 69.6036394,38.2856172 C70.3761434,37.6324393 70.7526917,37.2650413 70.8644516,37.1702438 C70.9762115,37.0754463 70.9965112,37.0440013 70.9965112,36.8541751 C70.9965112,36.6648113 70.8749361,36.1094368 70.7426534,35.8564893 C70.6105938,35.6037731 70.5896249,35.3781088 70.1017629,35.2939471 C69.6139008,35.2095543 69.690192,35.2359126 69.6558387,35.1727913 C69.6359851,35.1362596 69.6226007,35.0292078 69.6147931,34.9450461 C69.6089932,34.8826185 69.6152393,34.8359134 69.7017918,34.8597284 C69.8632971,34.9045838 70.1945615,34.9954507 70.420312,35.0474737 C70.7290459,35.1186874 71.0179263,35.1346411 71.1437398,35.4111723 C71.2693303,35.6877035 71.4359663,36.6252738 71.4801349,36.9105911 C71.5214035,37.1764865 71.4658582,37.3559081 71.1649318,37.7364854 C70.7100847,38.3122067 70.3951047,38.6174084 70.3036445,38.779489 C70.2121843,38.9413383 70.0406407,39.0204133 70.2770987,39.3404126 C70.5133337,39.660412 71.0087803,40.3267689 71.4928501,40.3859596 C71.7404618,40.4333583 72.0991642,40.410237 72.1406559,40.2014513 C72.186386,39.97255 72.0416112,39.8382151 71.9425665,39.8065388 C71.8584678,39.7797181 71.3190757,39.5300076 70.9697424,39.2396036 C70.880736,39.1653841 70.8742669,39.0285058 70.9599271,38.9501244 C71.171401,38.7570613 71.5539722,38.3741719 71.7966764,37.9355601 C71.8122915,37.9075833 71.853114,37.9203 71.8495448,37.9522075 C71.8205452,38.2097792 71.9019671,38.4167152 72.1406559,38.6095471 C72.2914537,38.7313966 73.6149496,39.3246901 74.0581969,40.079833 C74.158357,40.2504685 74.3374851,40.1170584 74.3111624,39.999602 C74.2089947,39.5443428 73.7416554,38.6446916 72.6976708,37.9628433 C72.6548406,37.9348665 72.637887,37.8786816 72.6608636,37.8319765 C72.7703928,37.609318 73.061727,37.1253884 74.6957413,37.8532481 C74.6957413,37.8532481 74.6923952,38.355906 75.3625084,38.7332463 C75.415823,38.763304 75.4729299,38.6987955 75.4403611,38.6456164 C75.276402,38.3771777 75.1900725,38.1535943 75.2775174,37.9142885 C75.3841466,37.6220347 75.330832,37.4719772 75.0334748,37.3771798 C74.7363407,37.2821511 73.8520768,36.9503598 73.4251139,36.8793773 C73.0291582,36.8132503 72.4580897,36.8648109 72.1375329,37.287469 L72.1375329,37.287469 Z M63.4051789,29.6399307 C63.3814174,29.7152905 63.8227312,29.9614865 63.9720022,29.8641532 C64.1667652,29.737264 64.4908963,29.5494061 64.9515037,29.5166005 C65.2092245,29.4983409 65.3672282,29.4387648 65.4559784,29.3900208 C65.4965964,29.3678926 65.4783183,29.3319922 65.4364818,29.3112567 C65.3324999,29.2595725 65.2411095,29.2396107 65.1302226,29.2198036 C64.8850933,29.1758566 64.3834618,29.3333849 64.2404867,29.3861522 C64.2100233,29.3972937 64.1787474,29.3726896 64.1945884,29.3502519 C64.3020229,29.1992228 64.6545866,28.7339107 64.365793,28.5816436 C64.0447083,28.4125096 63.7514468,28.5335186 63.4267064,28.8495037 C63.4013202,28.8742626 63.4346269,28.9079965 63.4732139,28.8971645 C63.6194385,28.8564671 63.7567271,28.8423855 63.8406031,28.8377432 C63.878784,28.8355768 63.9045764,28.8659064 63.8875168,28.8919033 C63.7136721,29.1558947 63.4346269,29.5473944 63.4051789,29.6399307 L63.4051789,29.6399307 Z M60.4166291,32.4673897 C60.1018343,32.1414753 59.8277336,32.139201 59.5973674,32.1419302 C59.4984386,32.1430674 59.2086683,32.2508716 59.2617578,32.3318384 C59.6560698,32.933859 60.3880964,33.6566475 61.2569395,34.0471535 C62.2076386,34.4745039 63.0711025,34.0626191 63.0711025,34.0626191 C63.7678141,34.2818665 64.6696334,34.7854076 64.9161369,34.9266448 C64.9561294,34.9496157 64.9771781,34.9928284 64.9710974,35.0376331 C64.9126288,35.4663481 64.8438698,36.1002096 66.0438788,36.6506024 C67.3145179,37.2335184 67.9698338,35.8734568 68.2175067,35.4927306 C68.4651795,35.1117769 68.2495474,35.0963113 67.9457447,34.8709232 C67.6945637,34.6844265 66.7267918,33.8756675 66.4000694,33.6018357 C66.3481493,33.5583956 66.3591414,33.4778836 66.4215858,33.450364 C67.0247477,33.1824455 68.2556282,32.7844342 68.8407817,32.6404678 C69.4722423,32.4849022 69.591986,32.6948248 70.0316697,33.021194 C70.4711195,33.3475633 70.7590188,33.270008 71.5261265,33.0134612 C72.2932342,32.7569145 72.3573158,32.104176 72.3891227,31.9488378 C72.4211635,31.7932723 72.3173233,31.2492477 70.886948,30.8373628 C69.5912843,30.4643693 68.2214825,31.1216566 67.2766303,31.5449132 C66.8098172,31.753926 66.9368109,31.855362 67.331123,31.7336843 C68.9640334,31.2299157 70.1139934,31.3170233 70.7110745,31.412546 C71.1774199,31.4871447 71.495489,31.7484676 71.6299667,31.879925 C71.6800158,31.9288235 71.7069113,31.9979638 71.6947499,32.0659669 C71.6584994,32.2663371 71.4940857,32.3595855 71.2064203,32.4928624 C70.8708107,32.6482006 70.5831453,32.6948248 70.1116547,32.3218313 C69.6399302,31.9488378 69.2404729,31.995462 68.3215807,32.1819587 C67.5058271,32.3475315 66.1729774,32.9525087 65.8827394,33.0869228 C65.8441502,33.1048901 65.8001818,33.0973848 65.768141,33.0698651 C65.6820753,32.9964036 65.593203,32.8474337 65.3452963,32.441917 C65.1401885,32.1059954 65.569114,31.1839738 65.6982126,30.8939941 C65.7173903,30.8512363 65.6624298,30.8137096 65.6252438,30.8439584 C64.7767478,31.5367255 64.6787545,32.5274326 65.2765372,33.2854736 C65.8086013,33.9598184 67.0549175,34.953937 67.4344955,35.2507397 C67.4927302,35.2959993 67.4941334,35.3812874 67.4370681,35.428139 C67.3456232,35.5031926 67.1996857,35.6203217 67.0107152,35.7645155 C66.6751056,36.0210622 65.8759571,35.7258515 65.8918605,35.2828081 C65.9360628,34.0612545 64.7175776,33.9206996 63.7914354,33.5151829 C62.80776,33.084421 62.7025166,32.617042 62.7025166,31.8724197 C62.7025166,31.4095894 62.6877825,30.5580726 62.7025166,30.0324702 C62.7067263,29.8923702 62.5313206,29.8295981 62.4599889,29.9515033 C62.3093739,30.2096421 62.0118858,30.733425 61.8318025,31.3613731 C61.4503535,32.6902761 62.2221388,33.5806842 62.2221388,33.5806842 C61.4414663,33.5588505 60.9040232,32.9725229 60.4166291,32.4673897 L60.4166291,32.4673897 Z M73.1785801,31.8793061 C74.000403,31.4466995 75.9607976,30.6153216 77.2291192,31.2608479 C79.2217855,32.275419 78.4916938,33.8054928 78.2520875,34.2090977 C78.2242366,34.2557419 78.1614615,34.2492166 78.1389156,34.1991889 C77.3632898,32.4946224 75.7101394,31.6603443 75.117976,31.5037359 C75.0591797,31.4882684 75.0302236,31.5767232 75.0830519,31.6086249 C76.6955311,32.591536 77.7191626,34.6605553 77.8259244,35.3408835 C77.8354291,35.4010617 77.8979831,35.4315133 77.9455065,35.39937 C78.6523891,34.922536 80.4713187,32.9729064 78.2116374,31.1491919 C76.2388646,29.8467803 73.9818357,31.0839384 73.1135947,31.7570162 C73.0481671,31.8077689 73.1063004,31.9174915 73.1785801,31.8793061 L73.1785801,31.8793061 Z M74.1662202,30.147621 C74.1622286,30.2150862 74.2753239,30.2349289 74.3006041,30.1707708 C74.5305203,29.5891591 74.711739,27.9576476 73.6978724,26.530957 C73.6486426,26.462169 73.7061217,26.374861 73.8024523,26.3766248 C74.4195538,26.3872076 76.1298217,26.6015088 75.8059698,28.676615 C75.5885606,30.0693526 73.6153793,31.3622151 72.6754903,31.8265345 C72.4618067,31.9321418 72.6140197,31.9835123 72.7201963,31.947134 C73.8929286,31.5460909 76.4834775,30.2305194 76.5425532,27.9031904 C76.3059843,25.1655583 73.4357572,25.6684607 72.4740476,26.0313617 C72.3862323,26.0644329 72.365476,26.1596779 72.4359943,26.2145761 C73.0121153,26.6656669 74.265478,28.3767697 74.1662202,30.147621 L74.1662202,30.147621 Z M71.7296363,26.7438487 C71.6739742,26.8210829 71.5680517,26.8545291 71.4743421,26.8226232 C70.6098177,26.5264487 70.1466713,26.8620105 69.9362356,27.1126366 C69.8918468,27.1656663 69.9519713,27.24004 70.0179673,27.212535 C70.4973192,27.0122981 70.9992177,27.1498234 71.2000241,27.2340989 C71.4327716,27.332017 71.6213652,27.940869 71.6817246,28.1514478 C71.7376216,28.3470637 71.4339459,28.8067283 71.2354882,28.9988237 C70.9762013,28.5197955 70.5971352,28.4577441 70.3423107,28.462585 C70.2803074,28.4639052 70.2276984,28.5316777 70.3106045,28.5840474 C70.6358873,28.7902253 71.2542771,29.2531905 71.1197016,29.8946085 C70.9379189,30.7617881 70.0069289,30.5914768 70.0069289,30.5914768 C70.0069289,30.5914768 69.600384,29.4686101 68.6212473,29.8745848 C67.819431,30.207066 68.1550477,31.0269369 68.3027755,31.3129895 C68.3335423,31.3724005 68.3053589,31.446114 68.2393629,31.4696584 C68.1191139,31.5127863 67.976788,31.5352304 67.8894196,31.5457924 C67.8436217,31.5510733 67.7968843,31.5347904 67.7694055,31.4998039 C67.6143971,31.3004472 67.2783106,31.0368387 67.0046972,30.8711482 C66.9239049,30.8222992 66.8269072,30.9063547 66.8741143,30.9849092 C67.0495557,31.2762428 67.3473598,31.7334869 67.56719,31.8795938 C67.8988141,32.1002944 68.6052768,31.7994991 68.9423027,31.7042215 C69.2793286,31.608944 69.1508595,31.3231114 68.8727838,31.1778847 C68.6545976,31.0639037 68.2842214,30.4361282 68.8835874,30.2706577 C69.4824836,30.1051873 69.4824836,30.7316426 69.5736098,30.9171367 C69.6645011,31.1026308 69.7556273,31.0826071 69.9747529,31.0727053 C71.0501826,31.0124142 71.7136657,30.1753802 71.3501005,29.2329468 C71.3284932,29.1770565 71.3176896,29.1515318 71.2925595,29.1031229 C71.5034649,29.0080654 72.3315857,28.5844874 72.3879524,28.2755506 C72.4365687,28.0077613 72.160137,27.582203 72.0218037,27.3804259 C71.9764755,27.3141937 71.9851653,27.2301382 72.0370697,27.1683068 C72.8393558,26.2150914 72.0203945,25.0451361 71.493131,24.3355055 C71.0126048,23.6890266 70.7265438,23.6701031 70.7265438,23.6701031 C70.7265438,24.1852179 70.951306,24.4257221 71.569226,25.4783959 C71.9821122,26.1816453 71.8578705,26.566056 71.7296363,26.7438487 L71.7296363,26.7438487 Z M64.3375952,27.7819048 C65.5663208,26.8492086 67.4161021,26.9225053 68.1687081,26.9980631 C68.2437148,27.0056001 68.2746406,26.92194 68.2081731,26.892546 C65.7401056,25.8053426 64.5425367,26.8902849 64.1102671,27.6469936 C64.0435688,27.7640045 64.2217387,27.8698985 64.3375952,27.7819048 L64.3375952,27.7819048 Z M68.8962966,26.7107446 C67.956757,25.9417537 66.3310583,25.4995303 64.8496903,25.8826476 C63.9253321,26.1215218 63.2068858,26.3388053 62.7264248,26.7527007 C62.6370467,26.8295691 63.0110236,27.1777741 63.1311923,27.1165243 C65.4462574,25.9360881 67.2049542,25.9639567 68.769927,26.7969536 C68.888599,26.860194 68.9972212,26.7931255 68.8962966,26.7107446 L68.8962966,26.7107446 Z M61.1401099,24.062816 C60.5951469,24.1004251 60.6350108,24.401078 60.9074923,24.5363389 C61.1431583,24.653345 61.7964572,24.929585 62.2675546,25.0182193 C62.3866773,25.0406528 62.4649982,25.1530403 62.435921,25.2636683 C62.18173,26.2329276 60.793294,26.7563761 60.0192309,26.8718426 C59.9280129,26.8854787 59.9207436,27.0066636 60.0100856,27.029537 C60.4586717,27.1439038 61.1771598,27.2235208 61.8288173,26.8386322 C62.7320863,26.3052867 63.0219203,25.7077197 63.1112623,25.2790638 C63.1283803,25.1965877 63.2062322,25.1418235 63.2960432,25.1427033 C64.8891921,25.1583188 66.2867734,23.4320386 68.3543026,24.8526073 C68.4251197,24.9012132 68.5146962,24.8198368 68.4624041,24.7536359 C68.1835914,24.4021777 67.6691126,23.9097403 66.9091191,23.7848165 C65.4599493,23.5464055 64.5402657,24.7131677 63.0392728,24.6146362 C62.9853393,24.6111172 62.9804149,24.5402977 63.0334104,24.5297408 C64.4495167,24.2455831 65.6702899,22.7535351 67.9026681,23.3414249 C68.4581833,23.4874626 69.3011874,23.8041709 70.146302,25.3725367 C70.1901523,25.454573 70.3212342,25.4248816 70.3191489,25.3331681 C70.3031782,24.5779068 70.0241309,22.8393102 67.8466242,22.4095547 C65.4107056,21.9285539 64.5240857,23.0106406 63.6853024,23.4214817 C62.7304448,23.8892862 61.6848383,24.0252069 61.1401099,24.062816 L61.1401099,24.062816 Z M57.9292896,22.0638629 C57.9377938,22.1773546 57.8755676,22.2815546 57.7757982,22.3224824 C57.1607953,22.5757924 55.3340399,23.5573961 55.9079734,26.1216891 C56.5005748,28.768944 59.1972532,28.8915062 60.0845996,28.0233942 C60.1366622,27.972511 60.0893703,27.8791513 60.0209214,27.8975135 C59.0138932,28.1698494 57.0655892,27.9649891 56.6121672,25.9604114 C56.2259496,24.2529475 57.6378633,23.0616165 58.063076,22.7470255 C58.1255097,22.7010093 58.2093077,22.7043278 58.266141,22.7578658 C58.4791623,22.9598501 59.0900166,23.3587303 60.0756805,22.5762348 C61.017786,21.8282515 61.4992098,21.5632163 61.992664,21.497953 C62.0723136,21.4875551 62.0710691,21.3645505 61.9914195,21.3559225 C61.5662067,21.31057 60.8902222,21.3738422 60.0402115,21.910992 C58.5444998,22.8560925 58.5658642,22.0623143 58.5658642,22.0623143 C58.5189871,21.6054715 59.9481167,20.1973337 63.9938603,21.4906524 C64.0849181,21.5198549 64.1380178,21.3837976 64.0527678,21.3386664 C63.3153867,20.948193 61.5991866,20.2508717 60.2244013,20.2176869 C58.3011952,20.1712284 57.8865609,21.4948558 57.9292896,22.0638629 L57.9292896,22.0638629 Z M54.1788483,25.7698422 C53.8833802,26.1187596 53.2986076,27.4648758 54.2248828,28.8444063 C54.7443596,29.6177072 55.1919919,29.7024929 55.647136,30.5080715 C55.698371,30.5989946 55.7318857,30.5785369 55.7584663,30.5664896 C55.7956405,30.5492142 55.8120126,30.5028434 55.7831207,30.4130568 C55.5658534,29.740226 55.247657,29.1258133 54.738196,28.4650298 C54.3111733,27.9113082 53.9529134,26.7502204 54.3115586,25.8671299 C54.348155,25.7768888 54.2387509,25.6989222 54.1788483,25.7698422 L54.1788483,25.7698422 Z M55.0538188,19.8799695 C56.5412602,19.3843591 57.3345315,20.5640127 57.4137662,22.1991602 C57.4213894,22.3511443 57.6653307,22.290855 57.678729,22.1395586 C57.9111201,19.5157119 56.5093816,18.5125707 54.7537433,18.9242804 C53.7437893,19.1610822 51.6665921,20.5468199 52.5571165,25.0985497 C53.4173792,29.4955446 56.2314825,30.5553073 58.456061,30.5773196 C58.5780316,30.5784602 58.6071382,30.4019477 58.4877086,30.3778778 C53.6287488,29.4072884 53.317123,25.1966632 53.317123,24.062857 C53.317123,22.3859883 55.2880579,21.4956318 56.2649782,21.2058763 C56.4583294,21.1483378 56.4220616,20.8714195 56.2206253,20.8594992 C55.3756089,20.8092962 54.3169128,21.3837642 53.8805443,21.7503141 C53.728312,21.8779991 53.3395305,22.0888972 53.5721526,21.5362068 C53.822331,20.9424829 54.2399881,20.1399242 55.0538188,19.8799695 L55.0538188,19.8799695 Z M52.0958576,25.6292178 C51.7957888,23.7393096 51.5892599,20.844063 52.3924535,18.5764941 C53.0759436,16.6471699 54.4297265,14.7721574 56.0120341,14.9442589 C57.0622751,15.0586113 57.5653998,15.6338107 58.0856581,16.5827751 C58.2347664,16.8545625 58.1062647,16.9673108 57.6844086,16.9432486 C57.0990891,16.9102491 55.1363702,17.2979931 54.3398911,18.701388 C54.2428781,18.8725728 54.4614468,19.0332161 54.600136,18.8927392 C55.5508171,17.930025 57.4373612,17.2594937 58.6515287,17.6538834 C59.2840813,17.8594427 59.3195061,17.6790914 59.2028126,17.1969322 C58.9601643,16.1943436 58.3986929,14.3906008 56.1704038,14.0360855 C53.2526046,13.5715719 49.0636803,17.5993426 51.9018316,25.6755087 C51.9416556,25.7887153 52.1146119,25.7476951 52.0958576,25.6292178 L52.0958576,25.6292178 Z M30.4886261,22.4793599 C31.3875753,21.8952225 32.3247127,21.9944072 33.5380777,22.8261704 C33.6075802,22.8738597 33.7022868,22.8051245 33.6595161,22.7372848 C33.3664856,22.2722586 32.6179977,21.4221362 31.1408798,21.6301329 C29.6757275,21.8365625 29.5176285,23.1492483 29.8264434,23.7571184 C29.847065,23.7978669 29.8119319,23.8430934 29.7610144,23.8435412 C29.2887542,23.8468996 28.5967848,23.7000256 28.3429608,22.868934 C28.32183,22.8004227 28.2105752,22.7970643 28.1914811,22.8657995 C27.9992674,23.5556145 28.3467796,24.2595347 28.932586,24.3329717 C30.1973777,24.4919359 30.315761,23.923471 30.2668802,23.8128678 C30.1525703,23.5560623 29.886017,22.8709491 30.4886261,22.4793599 L30.4886261,22.4793599 Z M28.9213836,21.1729079 C32.0404685,19.3693066 33.8350562,20.6097174 34.8724611,21.5685329 C34.9532384,21.642942 35.0837727,21.5642809 35.0467151,21.4645533 C34.6963333,20.5221658 33.3834946,19.7193197 32.5651044,19.567409 C31.6769708,19.4025491 30.1992466,19.6914887 28.8481011,21.0830371 C28.7985522,21.1340605 28.8585106,21.2092428 28.9213836,21.1729079 L28.9213836,21.1729079 Z M24.8171476,31.9070688 C24.8306604,31.9782571 24.9418999,31.975123 24.9452781,31.9025916 C25.0389027,29.9590165 25.4027837,27.8146367 28.2481986,26.5363813 C31.3814849,25.1287333 35.8011439,24.2567885 36.3619261,21.8701894 C36.922467,19.4833664 34.1849135,17.6322466 32.3215914,17.4639019 C31.661876,17.3873409 31.4804181,17.7544756 31.4640096,18.0146039 C31.4476012,18.2747322 31.4970678,18.3819624 31.9586756,18.7795424 C32.2448579,19.0260151 32.4550306,19.2431618 32.5930544,19.4491154 C32.6630316,19.5534354 32.833631,19.5138117 32.8394222,19.391135 C32.8524524,19.1059341 32.8010554,18.7298449 32.5194578,18.4278543 C32.5194578,18.4278543 35.5866278,19.0855626 35.4876946,21.5946145 C35.2734198,23.1858298 31.596001,24.1954501 29.617096,25.1135107 C27.8495703,25.9332955 23.8997233,27.138124 24.8171476,31.9070688 L24.8171476,31.9070688 Z M25.3279097,24.5224876 C25.4038526,24.4935966 25.3753027,24.353071 25.2961241,24.3611604 C24.6588889,24.4279563 23.6187185,24.9498426 23.3202762,26.1376078 C23.2334843,26.5587225 23.4068777,26.7272146 23.701894,26.7061819 C23.99672,26.6851493 24.040116,26.6641167 24.1613581,26.6641167 C24.2827907,26.6641167 24.4388638,26.7588791 24.300111,26.9377719 C24.1613581,27.1168958 23.3014332,27.9785399 23.4156331,29.0861037 C23.5361139,30.2539919 23.9101185,31.0009966 24.59665,31.9340591 C24.6453752,32.0001616 24.7296928,31.9208848 24.6910552,31.8455372 C24.2312104,30.9515353 23.9302938,30.0982119 23.9211578,29.3193116 C23.9124025,28.5778539 24.1090165,27.837552 24.4902538,27.5486424 C24.7711854,27.3357738 24.9228809,26.9299135 24.817817,26.5485529 C24.6868678,26.0738166 24.4377218,26.0426144 24.2742257,26.0426144 C24.2034218,26.0426144 24.1101585,26.0504727 24.026983,26.0594867 C23.9222998,26.0705808 23.8463569,25.9448473 23.8844235,25.8258166 C23.9803514,25.5267374 24.6267226,24.7896712 25.3279097,24.5224876 L25.3279097,24.5224876 Z M27.9911555,34.7055357 C28.1235802,34.7803746 28.1910418,34.5741908 28.0886001,34.50337 C26.6891877,33.5387509 23.3267252,31.122055 22.8628224,28.7257011 C22.2111097,25.3576964 23.9507453,23.1871152 26.2015484,23.2476393 C26.2904561,23.2498995 26.3069051,23.0894227 26.2198713,23.0668203 C24.1260622,22.5221031 21.1723256,24.5327098 22.0853479,28.811339 C22.6239999,31.3367775 25.9806324,33.5701431 27.9911555,34.7055357 L27.9911555,34.7055357 Z M18.3019515,32.5187272 C19.0348729,32.7759351 20.2840689,32.4318777 21.043903,32.44034 C21.2109858,32.4421215 21.1791392,32.3392383 21.0483885,32.3029397 C20.7588531,32.222771 20.2957311,32.1811278 19.5697621,32.1967162 C18.1265706,32.2278929 17.922483,31.2571835 18.0655686,30.5886655 C18.0960696,30.4452526 18.2505931,30.3641931 18.3871749,30.4198658 C19.028369,30.6813049 19.7406575,31.087493 20.1066696,31.305062 C20.1595979,31.3364614 20.2154416,31.2689861 20.1743998,31.2233345 C19.885313,30.9013235 19.3432472,30.4490383 18.653386,30.0947372 C18.5257751,30.0292661 18.5132159,29.8542311 18.6280432,29.7680497 C19.0947536,29.417757 19.7585992,29.1643348 20.3132243,30.0063289 C21.4471444,31.7270612 21.7869168,31.925256 22.4130847,32.5906563 C22.5326217,32.7175901 22.669652,32.6207196 22.5745606,32.4744117 C22.1901581,31.8838355 21.2957607,31.0249169 20.8458707,29.7092593 C20.223964,27.889875 17.6746622,28.3325844 17.2283606,29.7103728 C16.782059,31.0881611 17.3570928,32.1873632 18.3019515,32.5187272 L18.3019515,32.5187272 Z M17.2832943,39.4353737 C16.5191758,38.2468815 16.2485849,36.7509911 17.2611185,35.7819161 C18.3880694,34.7032395 21.8536144,33.096249 27.3300719,36.1646654 C27.4091024,36.209191 27.490492,36.1092224 27.4197184,36.0544216 C25.7669201,34.7721686 20.2107243,31.4736317 16.6484555,34.7430557 C14.6252755,36.6002889 16.3108656,38.7203946 17.144814,39.531061 C17.2158235,39.5999902 17.3356667,39.5169327 17.2832943,39.4353737 L17.2832943,39.4353737 Z M35.8953238,17.9870715 C37.9498677,17.2187046 39.9874505,18.2619676 40.8725892,19.2323723 C40.9151048,19.2786277 40.9865672,19.2330913 40.9696062,19.1712576 C40.3881827,17.0300881 37.9082567,16.5675341 37.0541001,16.8333229 C36.9559524,16.8637604 36.791996,16.9138504 36.9208997,16.6681935 C37.2481341,16.0453035 38.1597319,14.6756164 39.5071147,14.8625553 C44.2234066,15.9137272 43.3902818,23.9521005 43.0827221,26.2351519 C43.0499308,26.4788915 43.233562,26.4975854 43.2930386,26.2902749 C45.474677,18.700555 42.5010725,14 39.4039918,14 C37.2010956,14 36.306911,15.8753808 35.9699523,17.0753848 C35.9002991,17.3231987 35.8283844,17.5192449 35.7483284,17.8468673 C35.7259399,17.9391385 35.8105188,18.0187073 35.8953238,17.9870715 L35.8953238,17.9870715 Z M39.6685117,19.5527485 C37.3657602,19.8371473 37.6467369,21.6282872 37.9170052,22.477081 C37.9412153,22.5534637 38.0594723,22.5354136 38.0594723,22.4557291 C38.0585411,21.6417147 38.286209,20.1301308 39.9175962,20.2597832 C41.4307265,20.3799703 42.063215,21.6020926 42.2964698,22.2629015 C42.3306898,22.3601958 42.1998623,22.4330565 42.1253697,22.3584348 C41.1173922,21.3487311 40.0465615,21.3993594 39.4599325,21.5373764 C39.3009375,21.5747973 39.289298,21.7821531 39.4415422,21.8396052 C43.6005553,23.4075405 42.22221,26.4243246 41.1902552,28.1426039 C40.2802819,29.6583701 38.8870381,30.3187387 37.7624332,30.4671016 C37.6853799,30.4772272 37.6236907,30.4398063 37.6651272,30.3772914 C38.5068932,29.1052013 38.2338314,27.979713 38.0019733,27.4302862 C37.9626319,27.3369541 37.8173714,27.363589 37.8131812,27.4637449 C37.7156425,29.7616077 36.3594122,31.060773 35.0176148,31.8734667 C33.7521723,32.6397145 31.4275387,32.9282956 29.6285432,32.9963135 C29.5005091,33.0011562 29.4802564,33.1732923 29.6050314,33.2008077 C30.5177982,33.4013396 33.1411005,33.56313 35.3993892,32.3548754 C36.3610417,31.7964237 36.9111228,31.3568383 37.340619,30.813575 C37.3785636,30.7658083 37.4600399,30.7193624 37.5233586,30.7180417 C42.1851966,30.620087 43.1363735,25.4188033 43.3221394,24.2613972 C43.5130266,23.0729537 42.8104685,19.1646718 39.6685117,19.5527485 L39.6685117,19.5527485 Z M35.3222825,26.697808 C33.7559435,29.6083607 33.4373102,31.4424232 30.9460769,32.5026167 C30.8576776,32.5401898 30.9229875,32.6696583 31.0162246,32.6467976 C31.8102791,32.4505577 33.578925,31.987685 35.025859,28.7975979 C36.2680672,26.0583872 36.7764732,25.0846569 38.8230711,24.5237774 C38.827689,24.5224194 38.8331865,24.5199296 38.8380242,24.5181188 C38.8430819,24.5382634 38.8371446,24.5586343 38.8279089,24.5869273 C38.745007,24.8447327 37.8179138,25.4268885 37.0535456,26.5807883 C36.3925299,27.5785111 35.9821988,28.4125873 36.0895094,29.5085432 C36.1002844,29.6194516 36.2462972,29.6552139 36.2680672,29.5461162 C36.6810371,27.4642075 38.1424844,26.6271888 38.8470401,25.4051595 C39.0766144,25.0067947 39.1874434,24.7661914 39.2010771,24.6496245 C39.2155904,24.5267199 39.0768343,24.3691847 38.9638063,24.3741643 C37.9944925,24.264614 36.3371154,24.8114602 35.3222825,26.697808 L35.3222825,26.697808 Z M28.2490485,34.0258846 C29.3043596,33.6474446 30.4278096,32.7943941 30.6594339,32.2215326 C30.9076716,31.60729 30.9770144,30.8346898 30.6158539,30.1030082 C30.558309,29.9862628 30.622114,29.848249 30.7506872,29.8110291 C30.9570302,29.7511538 31.4361699,29.6808754 31.680796,29.691972 C32.0742202,29.7097727 32.2868234,29.7296541 32.3609817,29.4767443 C32.43514,29.2240657 32.4611435,28.255888 33.1772045,27.5607328 C33.7456712,27.0084462 34.8883831,26.5574159 35.1515488,25.6174421 C35.1515488,25.6174421 35.4339763,25.8040036 35.5090977,26.2605821 C35.5307674,26.3923541 35.7265164,26.3898112 35.7397589,26.2568832 C35.7688925,25.9644418 35.676917,25.5695881 35.2413574,25.1063054 C35.1554012,25.0149897 34.999139,25.0422688 34.9485766,25.1555465 C34.7894251,25.5108686 34.4285054,26.1618687 33.8270527,26.430961 C33.0214239,26.7913691 32.0985383,27.4703418 31.8507822,29.0019027 C31.8315203,29.1214222 31.7188382,29.2279957 31.5958028,29.2023348 C31.3906637,29.1591044 31.0374486,29.1769052 30.5920173,29.2952688 C30.1396035,29.4374439 30.042331,29.7724223 30.1080622,30.1043953 C30.1689779,30.411401 30.6837521,32.6901324 28.1768164,33.8890267 C28.0923048,33.929483 28.1606845,34.0577873 28.2490485,34.0258846 L28.2490485,34.0258846 Z M28.8030717,28.6373617 C28.8657129,28.5854718 28.8080057,28.4793545 28.7348527,28.5109092 C26.7483521,29.3659246 26.6290762,31.397112 26.8204324,32.2266499 C26.8789977,32.4797887 26.9523653,32.7803764 27.3728341,32.5887108 C27.7017008,32.438417 28.1206679,32.0078707 28.3997648,31.5518469 C28.4373067,31.4901399 28.3669425,31.4211871 28.3145984,31.4684023 C28.0080423,31.7451486 27.6364852,31.97094 27.4277525,32.0885105 C27.3378665,32.138998 27.2280298,32.0894454 27.195422,31.9849643 C27.0105015,31.3933722 27.1274176,30.8347372 27.3713324,30.3480937 C27.4459871,30.1989685 27.6023757,30.1157576 27.7546884,30.1524546 C27.9014235,30.1879828 28.0217719,30.3011123 28.0031083,30.5493425 C27.9735038,30.944828 27.6491422,30.9976529 27.4045838,30.9861998 C27.3048297,30.981525 27.2479806,31.1089125 27.31148,31.1928246 C27.4245346,31.3414823 27.5942238,31.3996831 27.7540449,31.3959433 C28.0642479,31.3886974 28.4233626,31.1402334 28.4772083,30.7569023 C28.5535792,30.2120579 28.3038722,29.9046918 28.0500892,29.7385037 C27.9520513,29.6742256 27.9402525,29.5222956 28.0215574,29.4346437 C28.2189203,29.2217079 28.6387456,28.77293 28.8030717,28.6373617 L28.8030717,28.6373617 Z M29.2310893,35.3744185 C29.3975142,35.191713 29.5659687,34.7052754 29.5104937,34.4657322 C29.4289726,34.1153823 28.8065705,33.9332147 28.2223921,34.0845429 C28.1077213,34.1143065 28.1107657,34.2041352 28.2288191,34.2301335 C28.8864004,34.3746484 29.1208159,34.8793745 28.9841581,35.3469858 C28.9638624,35.416733 29.1735848,35.4380696 29.2310893,35.3744185 L29.2310893,35.3744185 Z M26.9304546,36.0595788 C26.8767621,35.9978382 26.7548596,36.0313929 26.7553191,36.1075141 C26.7562422,36.2819984 26.8426571,36.5205242 27.2205781,36.7178257 C27.8399999,37.0409093 28.9580931,36.2459511 29.3675843,35.9752128 C30.0287157,35.5380433 30.3282872,35.0316553 31.1786095,35.2239715 C31.7579348,35.3547389 32.5216118,36.1709803 32.8384663,36.625023 C32.8824803,36.6881058 32.9977001,36.6478402 32.9760388,36.5770878 C32.7672605,35.9004338 32.1151163,35.0002098 31.2258497,34.7739554 C30.1446268,34.4988071 29.2993742,35.3681608 28.3283015,36.0056996 C27.5749943,36.5003914 27.1343937,36.2935028 26.9304546,36.0595788 L26.9304546,36.0595788 Z M31.7036778,38.1806868 C31.4014899,38.2425105 30.9842728,38.3926184 30.641709,38.5320926 C30.2022011,38.711134 29.6173822,38.7277028 29.0678921,37.8090028 C28.991136,37.6804096 28.8157534,37.750394 28.830684,37.9064369 C28.9023932,38.6488158 29.372183,39.4327401 30.1098834,39.5460011 C30.8850155,39.6654444 32.0962909,38.7467445 32.7944566,38.6868992 C32.9206311,38.6760182 33.0320852,38.5869921 32.9513335,38.4724946 C32.5921567,37.9630674 31.3356688,36.7409368 30.0510019,36.795589 C29.9591048,36.7995457 29.9366037,36.9481698 30.0224024,36.9869951 C30.4190109,37.1675203 30.9666083,37.2518478 31.7461566,37.9294354 C31.833217,38.0053548 31.810085,38.1589249 31.7036778,38.1806868 L31.7036778,38.1806868 Z M25.0179232,37.9039711 C25.1763966,37.5843747 25.3654191,36.5149935 25.3723404,35.8273254 C25.3639872,35.3861752 25.0420284,35.3861752 24.7933396,35.431971 C24.5553908,35.4758181 22.1112247,36.5632253 22.6966694,39.4934271 C22.714092,39.5811213 22.837959,39.5762494 22.8460736,39.4875809 C22.8701787,39.2159727 22.8897493,38.431841 22.9802032,38.0447688 C23.0007284,37.9561003 23.0716118,37.9025095 23.1448819,37.9548824 C23.6367701,38.3051717 24.3467978,38.1339245 24.536775,37.4983857 C24.7007377,36.9500538 24.4145786,36.5695587 24.0876079,36.4935571 C23.980686,36.4687105 23.9004947,36.5970849 23.9606382,36.6906253 C24.1713792,37.0177732 24.1553887,37.4119096 23.7988235,37.5376045 C23.5372468,37.6299269 23.3835467,37.4672056 23.303594,37.326895 C23.2553837,37.2423676 23.2522811,37.1373782 23.300014,37.0526072 C23.5761492,36.565174 24.0033592,36.1508193 24.6747232,35.9815209 C24.793817,35.9515587 24.9117174,36.0365733 24.9215026,36.1610502 C24.9427438,36.4277865 24.9520517,37.4460128 24.8880896,37.8596368 C24.875679,37.9392923 24.9823622,37.9760751 25.0179232,37.9039711 L25.0179232,37.9039711 Z M21.0334909,34.5775022 C21.6850232,34.284753 22.8224143,34.3358139 23.2049734,34.3683956 C23.3043338,34.3769058 23.3360678,34.2575205 23.2399903,34.2278565 C22.7062022,34.0639753 21.6988111,33.9117652 20.9538276,34.167556 C19.2436921,34.7547565 18.9694664,36.3777638 18.9445169,36.5606105 C18.9195674,36.743214 18.8696684,36.8375551 18.7700892,36.8431475 C18.6702912,36.8484967 18.6105437,36.8375551 18.5356952,36.6547084 C18.4610655,36.4718618 18.3562338,36.2170435 18.2864189,36.0619156 C18.2166041,35.9070309 17.9373447,35.6964654 17.5733883,36.128538 C17.2446676,36.5190323 16.7491792,37.6696047 17.3740111,38.8087492 C17.4320078,38.9147614 17.5771088,38.8629711 17.5670415,38.7394523 C17.5184556,38.150793 17.4131862,37.1341947 17.9025467,36.6768348 C17.9025467,36.6768348 18.0820081,37.5519215 18.7451397,37.4855423 C19.4082713,37.4191632 19.413305,36.8762155 19.4581703,36.5438333 C19.5030357,36.2114512 19.7273624,35.1647026 21.0334909,34.5775022 L21.0334909,34.5775022 Z M17.8578673,44.4669474 C17.7713982,45.8547819 19.4280298,46.4228882 20.4296514,46.4638187 C20.5366968,46.4680683 20.5724603,46.3340936 20.4747232,46.2938341 C19.6061122,45.9335116 18.82642,45.5382975 18.7193746,44.6490098 C18.6378045,43.9719792 18.990295,43.4047675 19.3915315,43.340576 C19.6110113,43.3054608 19.7736615,43.1665655 19.869194,42.8127292 C19.9688908,42.4445784 19.7354485,41.9748842 19.3479295,41.7512203 C18.8668376,41.4734298 18.1287877,41.7031326 17.7905047,42.0947681 C17.7251017,42.1703665 17.8000579,42.2763832 17.9017143,42.2511092 C18.3303858,42.1439741 18.701003,42.1424085 18.9609004,42.2546878 C19.2553364,42.3815052 19.4130876,42.7339995 19.5272367,42.9259031 C18.9447333,43.0681534 17.9151868,43.5452285 17.8578673,44.4669474 L17.8578673,44.4669474 Z M19.7234416,47.7978958 C19.8676035,47.7697507 19.8829668,47.5327396 19.7446976,47.4771901 C17.2912081,46.493347 16.5548245,45.1033754 16.2610287,42.452554 C16.2435609,42.2965217 16.0632006,42.269611 16.0137436,42.4157679 C15.7919235,43.0705111 15.3962673,44.6409568 16.0533092,45.985995 C17.0491843,47.7791324 18.8866707,47.9618285 19.7234416,47.7978958 L19.7234416,47.7978958 Z M18.66795,50.5162907 C21.4004038,49.8589491 20.9959807,46.6467012 20.7788306,44.9822892 C20.561897,43.3176444 20.0910083,40.1770642 20.5250919,38.0568177 C20.8409663,36.5143338 22.3599343,35.0988971 23.2737833,34.8373566 C23.3274754,34.8219992 23.2822268,34.7114728 23.2276687,34.7224091 C22.2070849,34.9269412 20.8483273,35.5284378 19.989686,37.6670665 C19.2782651,39.4394455 19.8318571,43.5510297 20.0293056,45.5123508 C20.3174679,48.3778946 19.4796106,49.1101614 18.3819527,49.350062 C17.4691863,49.549475 16.7791989,49.0296517 16.4815106,48.7453078 C16.4094159,48.6764324 16.4390765,48.5503159 16.5326048,48.5247203 C16.8014985,48.4518891 17.0108545,48.3525317 17.1660855,48.2582933 C17.2652427,48.19826 17.2271386,48.0307252 17.1132593,48.0290964 C16.3840854,48.0186254 16.1483162,47.3463919 15.4128638,47.6009518 C15.1781772,47.6819269 14.8705298,48.0258387 15.0578028,48.6184932 C15.2450758,49.2120785 16.4486025,51.0356487 18.66795,50.5162907 L18.66795,50.5162907 Z M21.9558553,46.2441227 C21.8691489,46.3485616 21.9267082,46.4997711 22.0663201,46.5245186 C22.4342096,46.5896794 23.0534004,46.6285035 23.4712563,46.2861253 C23.3933676,46.4575414 23.3179282,46.6359959 23.2459178,46.8242131 C22.5735765,48.5810583 23.527346,49.564601 23.9677357,49.8740583 C24.0047206,49.899941 24.0336227,49.9124282 24.0568913,49.9153798 C24.0928965,49.9255966 24.1303712,49.8976706 24.1960133,49.8667929 C24.5575346,49.696285 25.0677302,49.0333245 25.229631,48.4938745 C25.4356197,47.808664 26.1809511,45.574805 27.4156588,44.6857115 C27.5011405,44.6239563 27.3938598,44.5008999 27.2963764,44.5449459 C26.7349898,44.798778 25.6362199,45.6256623 24.947713,47.0621523 C24.4676441,48.0638583 24.314316,48.9820132 24.1061229,49.5621036 C24.0980401,49.5848077 24.0620349,49.5820832 24.0566464,49.558698 C23.9155649,48.9363779 23.7392131,47.6583626 24.5516562,45.970765 C25.8858067,43.1992724 27.9660235,42.7031872 27.195464,39.1901779 C27.1741548,39.0934583 27.0056408,39.0998154 27.0154381,39.1981243 C27.1873812,40.9613267 26.8030812,41.7795834 26.4092287,42.4407275 C25.9710434,43.1761142 24.5788437,43.9812025 23.5611467,46.0931402 C23.5378781,46.0738417 23.5035875,46.0649871 23.4692968,46.0813341 C23.263553,46.1778266 22.9737972,46.2781788 22.6933488,46.2520691 C22.5931712,46.2427604 22.5419801,46.1365051 22.6002742,46.0602192 C22.7692781,45.838627 23.0323362,45.2930468 23.0832823,44.7002421 C23.1557825,43.8572379 23.2522861,43.0750808 23.7592976,42.5830824 C24.5141814,41.8504203 25.2217931,41.7412134 24.6241564,41.1193474 C24.3346454,40.8180637 24.292272,40.6745736 24.2067904,40.5485657 C24.1369844,40.4459431 24.2109542,40.3101724 24.3412586,40.2979122 C24.8000183,40.2554554 25.7812203,40.0458964 26.3303603,39.1538513 C26.8772959,38.2652118 26.9137909,36.8194131 26.8180221,36.3112947 C26.8104291,36.2713355 26.7685456,36.092881 26.6529372,36.103552 C26.5740687,36.1108173 26.5699048,36.1768863 26.5899894,36.3258254 C26.7803024,37.7368868 26.1890339,39.3141424 24.0828542,39.6710512 C23.6838582,39.7387095 23.3632408,39.8186281 23.4553356,40.4314124 C23.5136297,40.8207882 23.7108009,41.1318347 23.8464938,41.3068835 C23.9175244,41.3983811 23.9045429,41.5225727 23.8151424,41.5986315 C23.4989337,41.8676754 22.8268373,42.5072506 22.6183993,43.2399128 C22.3624442,44.1378609 22.6950633,45.3548021 21.9558553,46.2441227 L21.9558553,46.2441227 Z M18.5342413,51.7940645 C18.2210559,52.8391838 18.7965552,55.2651701 21.5537445,55.4358495 C24.3109337,55.6060613 26.71154,52.8153355 27.5440492,51.5780264 C28.3353306,50.401741 29.683547,47.3201587 28.0797675,45.3814272 C28.0797675,45.3814272 30.1601965,41.3966466 26.661874,37.5311079 C26.5572377,37.415607 26.3694229,37.5348488 26.4412699,37.6720938 C27.0068843,38.7527518 28.1552309,41.3901 27.7998534,43.756933 C27.4403773,46.1499523 25.453253,47.312443 24.7150129,47.6460863 C24.6055547,47.6954197 24.6470234,47.8513692 24.7675721,47.8473945 C26.2787703,47.8011006 27.6272277,46.1354563 28.0139479,45.5198412 C28.6950479,47.2135425 28.2227382,50.0790867 25.6632488,52.2843587 C23.8371775,53.8574153 21.8054501,52.7688078 20.6288951,51.4725792 C20.4815846,51.3105506 20.2426571,51.5249521 20.3337919,51.7222856 C20.8456416,52.8288963 21.8285955,53.3046945 22.3428561,53.5097436 C22.5162051,53.5789506 23.2409437,53.8258513 22.3122367,53.9944265 C21.2263343,54.1919938 19.7189937,53.7066095 19.4458304,52.5293889 C19.1941248,51.4440547 19.9670828,50.5270618 21.2092164,50.2006666 C21.3350692,50.167466 21.2632222,49.9895385 21.1330296,49.9930456 C19.8045832,50.0316238 18.8148786,50.8569642 18.5342413,51.7940645 L18.5342413,51.7940645 Z M27.2702745,54.2593175 C24.4268151,56.3697635 21.0738062,58.4622139 18.1276592,57.5491569 C14.6822545,56.481112 16.1388614,53.9200985 16.6657922,53.1606798 C16.7250262,53.0752002 16.8563015,53.0985947 16.8848893,53.1982459 C17.5206825,55.4099177 19.1442423,55.6670313 19.8440723,55.8591355 C19.9591097,55.890628 20.0304649,55.7250675 19.9232034,55.6740047 C18.1457267,54.8221331 17.2421227,53.0068166 17.1254844,52.1346998 C17.0980401,51.928874 16.9313159,51.9646404 16.7732824,52.1023076 C13.2302217,55.1831719 15.5421763,58.9188548 18.9363516,58.8968101 C22.7639184,58.8718411 26.095658,55.6607328 27.4111553,54.4309515 C27.5110984,54.3373739 27.3805092,54.177437 27.2702745,54.2593175 L27.2702745,54.2593175 Z M26.4110435,66.7244761 C26.4334454,66.5741296 26.2144306,66.5293147 26.1767763,66.67677 C25.7420831,68.3802156 25.5495217,69.8711521 26.7792458,71.0373015 C26.866947,71.1206668 26.8009328,71.2710133 26.6805819,71.268122 C25.2668758,71.2367998 22.4933237,70.3111085 23.60651,67.1408204 C25.0292721,63.0877282 30.7605966,61.170087 32.8937866,60.5356921 C33.0470255,60.4899135 32.9752916,60.2518648 32.8184779,60.2807776 C23.7985948,61.9435043 20.4566528,67.362967 22.4895106,70.3583327 C23.9277635,72.4776407 26.6243387,72.1037018 27.6762771,71.7350637 C27.9267499,71.6473615 28.0151661,71.4524411 27.8102121,71.2825784 C26.1789212,69.9301824 26.2346877,67.9072504 26.4110435,66.7244761 L26.4110435,66.7244761 Z M30.9946776,66.5711771 C30.9946776,66.5711771 30.8086006,66.9920897 30.458057,67.1258881 C29.8147492,67.3718516 28.9728531,67.3445745 28.3679891,66.352961 C27.4649015,64.8727127 28.3322751,63.5946905 28.9764928,62.9139408 C29.1577927,62.7225314 29.3866356,62.6115422 29.2612952,62.8459835 C28.7465125,63.8084388 28.694875,65.948979 29.7951861,66.6946291 C29.8288528,66.7174383 29.8725286,66.6873396 29.8613822,66.6473646 C29.5306292,65.4434137 29.5338139,61.7057572 32.6120462,61.1837316 C35.601562,60.6769905 37.3326696,61.5917111 38.3849828,62.7056009 C38.4434447,62.7672093 38.5410327,62.6931381 38.5014516,62.6171857 C38.1024551,61.8520184 36.8301707,60.302637 33.094072,60.2783505 C29.6273073,60.2624269 26.3470746,63.1389762 26.7967986,65.4956162 C27.2001171,67.608174 29.2565182,68.5616937 30.6934967,67.3299954 C30.9143779,67.1404672 31.0999999,66.8585264 31.1646037,66.644778 C31.2055497,66.5088632 31.0331214,66.4580716 30.9946776,66.5711771 L30.9946776,66.5711771 Z M38.9492486,66.6592626 C39.1447215,66.7016356 39.1902626,66.5715205 39.0091382,66.4842064 C38.4146093,66.1965835 36.3954154,65.6431662 34.9435089,66.2130619 C34.4631445,66.4016004 34.664856,66.0825188 34.7679991,65.9558277 C35.3273845,65.2712253 36.6189616,64.1138856 38.6177764,64.7499088 C40.7313796,65.631396 40.3743295,66.9338312 39.9249497,67.4624238 C39.8827359,67.511859 39.9168396,67.6047372 40.0520071,67.4908865 C40.5785363,67.0483239 40.6307318,66.4741482 40.5600288,66.134522 C40.4807999,65.7544489 40.3000914,64.9365213 39.0343001,64.2427167 C38.9394749,64.1911415 38.8005644,64.1271539 38.6936781,64.0772907 C37.1492339,63.3556654 34.8753013,63.7066339 33.6436138,65.6859673 C32.5541641,67.4369572 32.0303382,70.3784577 32.4104707,72.6096751 C32.4350088,72.7539146 32.6404633,72.7408603 32.6508608,72.5946948 C32.7606584,71.0363095 33.061146,69.1263137 33.672103,67.9773202 C34.4331997,66.5460539 37.2673495,66.2945979 38.9492486,66.6592626 L38.9492486,66.6592626 Z M49.7052891,78.3167175 C49.4607979,78.1687641 49.1570489,78.1290857 48.8957182,78.2095634 C48.6331086,78.2855576 48.3984226,78.474086 48.2801204,78.7289693 C48.1579813,78.9813867 48.1841997,79.2997106 48.3308518,79.5185022 C48.4248541,79.6583854 48.5000986,79.5870988 48.4561882,79.4395938 C48.3950121,79.2333558 48.4011936,79.0257727 48.511609,78.8684041 C48.6181876,78.7070005 48.7925502,78.6081407 48.9722417,78.5852752 C49.154491,78.5644272 49.3284273,78.6126242 49.4686847,78.7173124 C49.6095816,78.8195347 49.7048628,78.9704023 49.7536758,79.147498 C49.7999309,79.3252662 49.7950283,79.52859 49.7447232,79.719136 C49.6931392,79.9121479 49.6042526,80.0876743 49.4776373,80.2085029 C49.3493167,80.3331424 49.1804962,80.4169827 48.9982468,80.4519534 C48.6348139,80.5281718 48.2296021,80.403084 47.9520715,80.1434931 C47.6728356,79.8798671 47.5208546,79.4597692 47.4449706,79.0183751 C47.4066023,78.7966692 47.3859261,78.5671173 47.3729235,78.3346512 C47.3582157,78.1019609 47.3499025,77.8663564 47.3377526,77.6264926 C47.3200605,77.2718529 47.2787081,76.7268913 47.2394871,76.2480605 C47.2305345,76.1375438 47.0768482,76.1370955 47.0681088,76.2476121 C47.0350694,76.6594156 46.9986195,77.1508001 46.9704828,77.6264926 C46.9564144,77.8663564 46.9502329,78.1019609 46.935525,78.3346512 C46.9225224,78.5671173 46.9018462,78.7966692 46.8634779,79.0183751 C46.787594,79.4597692 46.6356129,79.8798671 46.356377,80.1434931 C46.0788464,80.403084 45.6736347,80.5281718 45.3099885,80.4519534 C45.1277392,80.4169827 44.9589187,80.3331424 44.8308113,80.2085029 C44.7039828,80.0876743 44.6153094,79.9121479 44.5637253,79.719136 C44.4618362,79.3353539 44.548378,78.9148077 44.8355007,78.7103631 C44.9789555,78.6070199 45.1567286,78.5648756 45.3332227,78.5996222 C45.5075852,78.6357139 45.661911,78.7421955 45.7588975,78.8914938 C45.8575893,79.0405681 45.8995812,79.2360458 45.8168763,79.4174008 C45.7490923,79.566475 45.9417864,79.6601788 46.0127677,79.5404711 C46.1822276,79.3176444 46.2001328,78.9670397 46.0662701,78.7061038 C45.9381627,78.4388911 45.683653,78.2579845 45.4157145,78.194768 C45.1482023,78.1286373 44.8485033,78.1743684 44.6072094,78.3241151 C44.3616524,78.4702751 44.1787635,78.7316594 44.0998954,79.0100807 C44.0208141,79.2905196 44.0276351,79.5817187 44.0952059,79.8500523 C44.1288847,79.9850037 44.1772714,80.1154716 44.2414317,80.2394386 C44.3075104,80.3636298 44.3906417,80.4878209 44.4931703,80.5860082 C44.6958828,80.7886594 44.9527372,80.9155406 45.2151336,80.9691177 C45.7426976,81.0747026 46.3013825,80.9061254 46.6878364,80.5158424 C46.8396043,80.3634056 46.9589723,80.1833957 47.0459404,79.993298 C47.1086086,79.8563291 47.1847057,79.8274109 47.2405529,79.9448769 C47.3373263,80.1484249 47.4558416,80.3506278 47.6206121,80.5158424 C48.0070661,80.9061254 48.565751,81.0747026 49.0931018,80.9691177 C49.3557114,80.9155406 49.6123526,80.7886594 49.8150651,80.5860082 C49.9175937,80.4878209 50.0009381,80.3636298 50.06723,80.2394386 C50.130964,80.1154716 50.1795638,79.9850037 50.2130295,79.8500523 C50.2803871,79.5814945 50.2878476,79.2907437 50.2098321,79.0096324 C50.1348008,78.7300902 49.9534041,78.4637741 49.7052891,78.3167175 L49.7052891,78.3167175 Z M51.6831082,65.2396953 C52.3825588,65.5745338 52.7479457,66.1372728 52.9078117,66.4558076 C52.942533,66.5250543 53.0304446,66.4963038 53.0317743,66.415662 C53.0379798,66.019641 52.8376302,65.7268765 52.6526467,65.5158055 C52.4775624,65.3159543 52.1878238,65.1383672 51.7054185,65.1134734 C51.6445454,65.1103179 51.6265198,65.2126978 51.6831082,65.2396953 L51.6831082,65.2396953 Z M50.2082675,71.5041248 C50.074123,71.4863221 49.8613954,71.445424 49.7471734,71.3588164 C49.7090993,71.3297867 49.6269746,71.3097387 49.5773898,71.3637883 C49.3259241,71.6370836 48.8524338,72.1078124 48.8845311,72.625213 C48.8905078,72.7230476 49.005394,72.7410107 49.0408117,72.6611392 C49.0979227,72.5326711 49.3037881,72.1049254 49.5503838,71.9716459 C49.8802111,71.793619 50.1102048,71.6877651 50.2441279,71.5915344 C50.285301,71.5618632 50.2653785,71.5118233 50.2082675,71.5041248 L50.2082675,71.5041248 Z M52.1505745,73.1530442 C52.1886847,72.5145631 52.0274323,71.7981413 51.1885673,71.4360334 C51.1178542,71.4056998 51.0326019,71.4257115 50.9847989,71.4842723 C50.8213436,71.6843901 50.4732852,71.9059943 50.2635689,72.1309688 C50.0362295,72.3749019 49.6974232,73.2139222 49.6295739,73.9233925 C49.6223043,73.9985947 49.5269186,74.0320881 49.4689823,73.9804787 C49.1682862,73.7112676 48.6129347,72.6392681 49.0365527,71.7734952 C49.3912199,71.0484368 49.7024899,70.6776922 49.8776206,70.5064335 C49.9732265,70.4131154 50.0355686,70.2911489 50.0432788,70.1605457 C50.0998934,69.1959778 50.8971235,67.7266917 52.1067367,67.1920612 C52.1726035,67.1627808 52.2360471,67.2388256 52.1922093,67.2942266 C51.9258785,67.6302139 50.7195696,68.5351677 50.7858769,70.4196456 C50.7883001,70.4895815 50.8409495,70.5494062 50.9127641,70.5641517 C51.3302139,70.6490438 52.683897,71.0256866 52.8682798,72.3563647 C52.9429582,73.1273449 52.7612188,73.6554453 52.6131838,73.9442469 C52.583665,74.002597 52.6572419,74.0584194 52.7092303,74.0169212 C53.1297643,73.680934 53.9040842,72.8981573 54.0479337,71.7016635 C54.248618,70.031417 53.4170226,69.0929698 53.1002454,68.5101003 C53.0198395,68.3620131 53.2165586,68.3971917 53.2581934,68.4591229 C53.7216839,69.1487921 55.0308684,70.4980075 54.0723859,72.975466 C53.3015906,74.9682181 51.9441626,74.8317167 51.5350838,74.7390306 C51.4727417,74.7247064 51.4445445,74.656245 51.481333,74.6061102 C51.6626318,74.3596493 52.1184121,73.6902026 52.1505745,73.1530442 L52.1505745,73.1530442 Z M47.9086198,67.4011597 C47.7938117,67.3946412 47.6952428,67.3461143 47.6106473,67.283826 C47.561174,67.2476119 47.4837541,67.2258835 47.5030146,67.3218508 C47.5660836,67.6387242 47.8489498,67.8762887 48.1858212,67.8762887 C48.5706552,67.8762887 48.8829787,67.5655717 48.8829787,67.1817023 C48.8829787,66.8412897 48.6337241,66.5718569 48.3127144,66.4987044 C48.2575763,66.4860294 48.1922414,66.5034122 48.2757039,66.5682354 C48.3878685,66.6558736 48.4456502,66.7996435 48.4369641,66.9492078 C48.4214801,67.2135707 48.1846882,67.4160075 47.9086198,67.4011597 L47.9086198,67.4011597 Z M46.5579695,66.5039165 C46.2927145,66.5918462 46.1170213,66.8656529 46.1170213,67.1646883 C46.1170213,67.5579606 46.4318209,67.8762887 46.8201755,67.8762887 C47.138024,67.8762887 47.3891778,67.6577628 47.4936028,67.3698577 C47.5218052,67.2923163 47.4524426,67.2400036 47.3701221,67.2934293 C47.2912316,67.3446289 47.20167,67.3835852 47.0999127,67.3895213 C46.8213188,67.4047328 46.5827418,67.1973373 46.5667351,66.9264988 C46.5606373,66.8248416 46.5964619,66.7339437 46.6360977,66.64824 C46.6814502,66.551035 46.6719224,66.4664443 46.5579695,66.5039165 L46.5579695,66.5039165 Z M62.8742599,67.2035546 C62.7818723,67.1440154 62.678842,67.2642301 62.7492649,67.3485394 C63.9835908,68.828839 66.5915033,68.3616152 66.8460221,65.8441514 C67.1245437,63.0901215 63.6387222,60.8528557 60.6762043,60.9737522 C57.7700699,61.0919216 56.0590873,62.1924882 55.0921874,63.8157274 C54.6089638,64.0845629 54.2043151,64.4670229 53.9602125,64.9124308 C53.2555304,66.1986598 54.3039488,67.1503783 54.763849,67.4123964 C54.8238556,67.4464837 54.8904291,67.3796725 54.8544251,67.320815 C53.8952241,65.7591603 55.4207522,63.8786754 57.3749317,63.8977643 C59.4443692,63.9179894 60.4891646,65.3757914 60.8485253,66.0150426 C60.891549,66.0916255 60.8045959,66.1772984 60.7296442,66.1320758 C59.6776027,65.4944153 57.4451281,65.2158081 55.7941522,66.2850144 C55.7022174,66.3443264 55.7441089,66.5104453 55.8566497,66.4520424 C56.7547118,65.9868638 58.0845954,65.7298452 59.2890312,66.1134414 C60.3245425,66.4431796 61.1924881,66.95199 61.8733939,68.4118372 C62.3004603,69.3278777 62.6933341,71.3469845 62.371789,73.2979166 C62.3495978,73.432448 62.563131,73.4383565 62.5950591,73.3056431 C63.4020922,69.9794004 62.3040833,66.6979257 61.2337002,65.2746656 C59.7824445,63.3455494 57.3323609,62.9555902 55.6175288,63.5884785 C55.5812983,63.6016589 55.5536726,63.5537094 55.5833363,63.5293937 C56.7653545,62.561086 59.1803399,61.0973756 61.9662345,61.9511499 C64.871463,62.8415112 64.1735741,66.25729 63.9720423,66.9940311 C63.9598145,67.0394809 64.0137073,67.0726592 64.0499378,67.0426623 C64.8639905,66.3675057 64.8972772,64.3861222 64.729485,63.6909677 C64.7018593,63.5764343 64.84112,63.4971244 64.9235443,63.5812065 C65.4885128,64.1563736 66.5566315,65.5200945 65.6390955,66.8899511 C64.7813398,68.1698171 63.527993,67.6257831 62.8742599,67.2035546 L62.8742599,67.2035546 Z M64.2224972,60.2798994 C64.1460457,60.2621938 63.9931427,60.4002005 64.198793,60.4938219 C68.8922314,62.6260129 71.7875648,65.4455694 71.3361166,68.443152 C71.0053251,70.6413146 69.3528623,70.8292851 68.7359116,70.8217662 C68.640454,70.8205535 68.5874932,70.6898231 68.646647,70.6020227 C69.4701022,69.3781533 69.2890104,67.1530685 68.8341453,66.1872643 C68.795706,66.105285 68.6906386,66.1365729 68.6872218,66.2299518 C68.6079941,68.326004 68.2110016,70.1191206 67.0529109,71.1892181 C66.933322,71.30006 66.9587347,71.5207737 67.1011736,71.5843198 C71.2739731,73.4526246 73.2659829,68.8797285 72.0318679,66.1993914 C70.7800281,63.4812177 68.6252918,61.304884 64.2224972,60.2798994 L64.2224972,60.2798994 Z M44.1125506,71.7302665 C44.3617748,71.8833287 44.6094286,71.9983509 44.8126663,72.1748686 C44.9793391,72.3195109 45.1704633,72.5109138 45.2788119,72.6794627 C45.3115632,72.7305837 45.4252955,72.7170517 45.4255319,72.66142 C45.4268658,72.4196479 45.3160497,72.0022602 44.7801393,71.3876056 C44.7343772,71.3352818 44.6341043,71.3154349 44.5517773,71.3409953 C44.3768045,71.3951234 44.2381721,71.4530104 44.137002,71.5012746 C44.022821,71.5557034 44.0091372,71.6668164 44.1125506,71.7302665 L44.1125506,71.7302665 Z M60.6379727,71.1242172 C60.6568592,73.3087375 59.8492904,74.8861016 59.1894004,75.8589368 C57.488477,78.3659043 54.829803,78.9257683 52.9070201,78.7411374 C49.397088,78.4038814 48.2072381,76.3624322 47.8481669,75.8094949 C47.35598,75.0509079 47.155965,74.3345974 47.0742752,73.9108778 C47.063808,73.8564201 46.9900823,73.8578532 46.9814355,73.9125498 C46.8908713,74.4915217 46.585274,75.653526 45.4857607,76.8599563 C44.0335476,78.4535622 41.1805474,79.3556979 38.5403048,78.7253733 C35.8998346,78.0948098 32.9617313,75.3205694 32.9787234,71.2606004 C32.991085,68.3626358 34.7543566,67.2037366 35.9128048,66.9856667 C37.0070845,66.780017 38.4467824,67.1638486 38.9030167,68.8752075 C39.2734653,70.2655522 38.477729,71.3062207 37.4555821,71.5818534 C35.6092554,72.0800941 35.0736068,70.2906314 35.4957089,69.4233678 C35.8695707,68.6552268 36.4625615,68.6463894 36.8630464,68.7541106 C37.367521,68.8895385 37.4651392,69.4548959 37.4715105,69.6920738 C37.4728758,69.7388884 37.4239529,69.7797317 37.3875452,69.774477 C37.3477243,69.7687446 37.3424906,69.7240797 37.3363468,69.6734435 C37.29243,69.3113472 37.0166415,69.011113 36.8487109,68.9432797 C36.4047642,68.7639035 35.5507755,69.139853 35.7544312,70.1489935 C35.9649134,71.1925282 37.3814014,71.3327331 38.0321895,70.3469999 C38.5498618,69.5630949 37.9912308,67.6752261 36.1899586,68.0308734 C35.5403083,68.1591358 34.3891416,68.969792 34.3431768,71.0972272 C34.2530677,75.2919074 37.7937189,79.2255248 43.0307424,77.5502323 C45.4534489,76.7751647 46.3825285,74.7169959 46.7106531,73.6777604 C46.7227131,73.6388279 46.6706046,73.6151818 46.6528558,73.6517258 C46.3886723,74.1977364 45.8068313,75.0628504 44.5462139,75.7894315 C43.9545884,76.1302702 43.2919678,76.346907 42.6138739,76.4011259 C41.9373729,76.4448354 41.1814576,76.3631487 40.5411367,76.1469897 C39.6097816,75.8324245 37.8091922,74.5137347 37.2066443,73.0990274 C37.1222239,72.9010209 37.2846934,72.8914669 37.4116653,73.0780086 C39.2154405,75.7290025 41.9633134,76.5004874 44.2931802,75.2596627 C46.623047,74.0188379 46.6007473,71.8058945 46.6289632,71.4846415 C46.6485324,70.5946872 46.2760359,70.1351402 45.3997475,69.4718543 C43.4860665,68.0241856 43.3793463,66.2134653 43.731136,65.0643589 C43.7636754,64.9587873 43.6733387,64.8584704 43.5711695,64.8864158 C43.0705633,65.0230379 41.9259955,65.4073472 41.3855684,66.1752493 C41.3471127,66.2297071 41.3880714,66.3063779 41.4524676,66.3004066 C41.930774,66.2555028 42.2598088,66.4948303 42.4286497,66.6632195 C42.4591411,66.6937922 42.4247813,66.7441895 42.3863257,66.7255593 C40.7420619,65.9445204 40.6376172,68.4247367 40.5773169,69.8215304 C40.4762855,72.1904427 41.5114026,73.3512527 42.1087168,73.8193984 C42.1976882,73.8891425 42.3112347,73.7780773 42.2550303,73.6775216 C41.4149221,72.1715736 42.1767537,71.0821796 42.4124937,70.7852893 C42.6687131,70.4628421 43.1174383,70.1107775 43.4831084,69.9841871 C43.8487784,69.8573579 43.7115668,69.4665996 43.6803927,69.3113472 C43.5534208,68.7225824 42.7679241,67.3222061 42.5956701,67.0339143 C42.5535737,66.9634537 42.6903302,66.8841555 42.7253726,66.9328809 C43.0503115,67.3840682 43.8644793,68.8238548 44.0023735,69.3161242 C44.1002193,69.663173 44.0754165,69.879332 43.9818942,70.0259858 C43.929103,70.1086278 43.9304683,70.2173045 43.9855349,70.2980357 C44.3562111,70.8435687 44.7314382,71.6186363 44.8072118,72.5233993 C44.8716079,73.2884353 44.3236717,73.7506096 44.0458352,73.9340463 C43.9891757,73.9713068 43.9143123,73.9259254 43.9184082,73.8559424 C43.9277377,73.6916137 43.9140848,73.3892299 43.799628,72.8668654 C43.6473982,72.1751563 43.1411033,71.5995283 42.7547263,71.1562231 C42.6903302,71.0826573 42.5751907,71.0934056 42.5276332,71.1801081 C42.4919081,71.2450752 42.4577758,71.3150582 42.4261466,71.3914901 C41.9153007,72.7947327 43.0095804,74.048933 43.3534058,74.397176 C43.4027838,74.4470956 43.3852626,74.5311708 43.3224593,74.5595939 C41.7448671,75.2751879 39.4190962,72.910336 39.4190962,70.3909483 C39.4190962,68.343289 40.3813978,67.1225276 40.7846134,66.7009577 C40.8874652,66.5934753 40.9502685,66.4537482 40.9675622,66.3025563 C41.0135269,65.905349 41.2424405,65.4591776 41.9906192,64.9821946 C42.6960189,64.5329181 43.5329414,64.4701006 43.8974738,64.4610243 C43.9757504,64.4610243 44.0007807,64.4364228 44.0462903,64.3623793 C44.426751,63.7418475 45.0195143,63.3389079 45.1963193,63.2178111 C45.2252179,63.1979865 45.2463799,63.1698023 45.2577573,63.1354079 C45.3462736,62.868135 45.8186638,61.6597938 47.1234256,61.6597938 C47.978097,61.6597938 48.4643676,62.1919512 48.6759875,62.6557975 C48.7287787,62.7718785 48.5874712,62.8741062 48.501458,62.7826267 C48.2158849,62.4780932 47.7145961,62.1668719 47.1234256,62.1647223 C46.481512,62.1618561 45.9916005,62.5253855 45.7340159,62.7714008 C45.6882787,62.8146326 45.7331057,62.8922588 45.791358,62.8714789 C46.3411147,62.6763386 46.8662961,62.847355 47.150959,62.9643914 C47.2601821,63.0092952 47.2633678,63.0632752 47.1318449,63.0556321 C46.4196188,63.0150276 45.8762335,63.1523662 45.5462886,63.2705969 C45.3157822,63.3527612 45.1237314,63.5283158 45.0117777,63.7549843 C43.6018886,66.6109113 45.2709551,68.1617631 45.7019316,68.5522825 C46.0639609,68.8799845 46.42508,69.252829 46.6344244,69.4749593 C46.6801616,69.5234458 46.757528,69.4804529 46.7438751,69.4133361 C46.5427224,68.4225871 46.7625341,66.2394999 46.781193,65.8535186 C46.8018999,65.4293214 46.5531897,65.1025749 46.0141278,64.9993917 C45.7271894,64.9442174 45.4944075,65.0471617 45.3312554,65.1393577 C45.2363678,65.1926212 45.2673144,65.0789287 45.3023568,65.0316365 C45.4386582,64.8465279 45.6762186,64.6604639 45.9777201,64.6456552 C46.3693307,64.6265472 46.6341968,64.8818776 46.7579831,65.0368912 C46.7889297,65.0758237 46.8487749,65.0571934 46.8544636,65.0067961 L46.9777947,63.4609602 C46.983711,63.4093686 47.0553887,63.4093686 47.0610774,63.4609602 L47.186229,65.0366523 C47.1926003,65.0930209 47.259272,65.1157116 47.2945419,65.0729575 C47.4155976,64.9263037 47.6490621,64.6950971 47.9423719,64.6564034 C48.3722106,64.5943025 48.6336635,64.8453336 48.7840729,65.0571934 C48.8427804,65.1403131 48.8971644,65.264515 48.7829352,65.1895162 C48.6325258,65.0906324 48.3908695,64.9568765 48.0124567,65.0237544 C47.2271876,65.1544053 47.2581342,65.8563848 47.2581342,65.8563848 C47.4758979,67.8832642 47.3589381,68.9998871 47.2824819,69.4472527 C47.2745177,69.4931119 47.3289017,69.5212962 47.3582555,69.4861853 C47.5034313,69.3108695 47.8147173,69.0072914 48.4789307,68.5334134 C49.6685531,67.6845412 49.8105432,66.811784 49.8105432,65.7918954 C49.8105432,65.0557603 49.2630621,63.8751257 48.9299314,63.3002143 C48.8598465,63.1793563 49.0266394,63.0678134 49.1076466,63.2132729 C49.4491965,63.8252061 50.6763644,65.1403131 49.8030341,67.7394767 C49.4689932,68.7338084 48.5644889,69.2619053 48.006768,69.9034559 C47.4344841,70.5619648 47.3662196,70.9792354 47.3932979,71.5283511 C47.6103789,73.5910579 48.6031721,74.7091139 49.7349972,75.2596627 C50.8668223,75.8102115 52.0894392,76.0973089 53.2767861,75.7748617 C55.3254032,75.2185805 56.5345947,73.2294393 56.8340482,72.5085906 C56.8959413,72.3595484 57.0559078,72.4343084 57.024051,72.5773794 C56.8415573,73.3980673 54.1892546,78.0819119 49.4890175,75.7856099 C48.2547957,75.182753 47.6677211,74.2034688 47.3814654,73.6350063 C47.3525667,73.5779212 47.268829,73.6120767 47.2856676,73.6741777 C47.8365619,75.7079837 49.739093,78.1017365 53.6920617,78.1017365 C56.3762211,78.1017365 58.3044652,76.407336 59.274731,74.3357916 C60.1744569,72.4140061 60.1428277,70.5741461 59.7537201,69.5922346 C59.2669944,68.3635912 58.2878541,67.4786527 56.9159656,67.891624 C55.7333972,68.2472713 55.4346263,69.6285397 55.9618557,70.4219988 C56.3443643,70.997388 57.0845789,71.3267618 57.6907675,70.995716 C58.3358668,70.6436514 58.3986701,70.0307628 58.2421169,69.5585568 C58.0659946,69.0273548 57.5794964,68.8212274 57.1189387,68.977674 C56.9505529,69.034998 56.7316515,69.2769528 56.6952438,69.6373772 C56.6925132,69.6641284 56.670441,69.7130926 56.6331231,69.7109429 C56.5967154,69.7090321 56.585793,69.6529024 56.5839727,69.6330779 C56.5512057,69.3063314 56.7903589,68.8971816 57.0679678,68.8014029 C57.4561652,68.6671693 58.2232304,68.6776787 58.5306481,69.5934288 C58.7597893,70.2763004 58.2999142,71.068804 57.8288893,71.2820969 C56.7885386,71.7533476 55.1019508,71.0616386 55.2396175,69.3765532 C55.3597629,67.9112097 56.6051346,67.1098686 57.8186496,67.2326374 C59.915962,67.4454526 60.6263677,69.7697 60.6379727,71.1242172 L60.6379727,71.1242172 Z M55.9802176,47.1567926 C55.9376195,47.149917 55.8948018,47.1597096 55.8607672,47.1832533 C55.8273913,47.2063804 55.8065314,47.2403418 55.8003832,47.2813871 C55.7863302,47.3745204 55.8315633,47.437026 55.9286168,47.4576528 L61.7687335,48.5325405 C61.7803712,48.5348324 61.7917892,48.5360825 61.8034268,48.5360825 C61.8389985,48.5360825 61.8739114,48.5256649 61.9039936,48.5060798 C61.9439568,48.4800358 61.9705257,48.441074 61.9788697,48.3956533 L62.0186133,48.1795923 C62.0269573,48.1337549 62.0155392,48.0881258 61.9865549,48.0506225 C61.9575706,48.0129108 61.9149725,47.9891586 61.8668849,47.9829081 L55.9802176,47.1567926 Z M62.6544428,44.9460802 C62.6977351,44.8898088 62.7179233,44.8183024 62.7116425,44.7450759 L62.7017728,44.636219 C62.6950434,44.5629925 62.662518,44.4971378 62.6102532,44.4511869 C62.557764,44.405236 62.491816,44.3855779 62.4256438,44.3934412 L54.5426212,45.3950227 C54.4609714,45.4173838 54.4078092,45.4994565 54.4156602,45.5901296 C54.4241841,45.6869458 54.5002261,45.7731959 54.5751465,45.7731959 C54.5778383,45.7731959 54.58053,45.7729501 54.5829975,45.7729501 L62.4835165,45.0421593 C62.550586,45.0365076 62.6111504,45.0023516 62.6544428,44.9460802 L62.6544428,44.9460802 Z M54.568012,43.7010309 C54.5821735,43.7010309 54.5974957,43.6993135 54.6125858,43.6957068 L58.4176084,42.7541932 C58.4730935,42.7409687 58.5174351,42.7121153 58.5429722,42.6733006 C58.5680449,42.6344859 58.5705986,42.5906906 58.550169,42.5505019 L58.4844691,42.4208334 C58.4638073,42.380473 58.422948,42.3490434 58.369088,42.3320406 C58.315228,42.3152094 58.2562606,42.3155529 58.2033292,42.332384 L54.4944188,43.4775889 C54.4219864,43.5052401 54.3966815,43.5620881 54.4282546,43.6259778 C54.4484521,43.6670251 54.5030086,43.7010309 54.568012,43.7010309 L54.568012,43.7010309 Z M52.4963546,42.3195876 C52.5208183,42.3195876 52.545515,42.3129417 52.5674158,42.2977511 L60.552828,36.6558572 C60.5970956,36.6247639 60.6262191,36.5777679 60.6355386,36.5238886 C60.6443921,36.469772 60.6318108,36.4156554 60.5996585,36.371745 L60.4647588,36.1847104 C60.4333054,36.1412747 60.3874069,36.1130297 60.3347518,36.105197 C60.2830285,36.0976017 60.2301404,36.1106561 60.1879696,36.1429362 L52.3854526,42.0556505 C52.3162553,42.1173624 52.3383891,42.21444 52.3749681,42.2607239 C52.4026937,42.2956149 52.4495241,42.3195876 52.4963546,42.3195876 L52.4963546,42.3195876 Z M52.5021601,40.9381443 C52.5408433,40.9381443 52.5812083,40.9254698 52.6119626,40.8913638 L57.1333245,35.8729452 C57.1679231,35.8351521 57.1845016,35.786528 57.1801767,35.7367517 C57.1758519,35.6865146 57.1511043,35.6413472 57.110499,35.6093152 L56.9134793,35.4546861 C56.8731143,35.4226541 56.8228983,35.4076751 56.7702797,35.4136667 C56.7181415,35.4194278 56.6720101,35.444316 56.6398142,35.4839527 L52.3700128,40.7166859 C52.3154719,40.7881241 52.343343,40.8673975 52.3969228,40.9058819 C52.4221509,40.9240871 52.4613146,40.9381443 52.5021601,40.9381443 L52.5021601,40.9381443 Z M51.7188563,38.1643085 C51.734727,38.1716782 51.7536893,38.1752577 51.7732699,38.1752577 C51.8217063,38.1752577 51.8746771,38.1527277 51.8965249,38.1085098 L53.6987691,34.4034746 C53.7270064,34.3466231 53.7311287,34.2821913 53.7103114,34.2219708 C53.6897002,34.1617503 53.6468288,34.1141635 53.5899419,34.0878433 L53.5118254,34.0516268 C53.4050594,34.0021449 53.2704682,34.0436255 53.1841072,34.1520645 L51.6586716,38.0036503 C51.6331137,38.0663976 51.659496,38.1371462 51.7188563,38.1643085 L51.7188563,38.1643085 Z M42.9506993,34.7365007 C42.9143046,34.7144282 42.8749144,34.7170673 42.8397178,34.7436982 L42.7398195,34.8204722 C42.7046229,34.847583 42.6787123,34.8948469 42.6665807,34.9541068 C42.6545989,35.0133667 42.6580437,35.0764653 42.6764657,35.1309268 L43.8797387,38.8002417 C43.8939671,38.8429472 43.9201773,38.8659794 43.9505812,38.8659794 C43.9655584,38.8659794 43.9814343,38.8604613 43.9973102,38.8489452 C44.0500302,38.8105582 44.0465854,38.7193891 44.0365506,38.6812421 L43.0305281,34.8598188 C43.0154011,34.8024783 42.9869443,34.7585732 42.9506993,34.7365007 L42.9506993,34.7365007 Z M44.5607584,40.9381443 C44.6002385,40.9381443 44.6397186,40.9245856 44.671056,40.9047854 L44.671056,40.9045702 C44.6977051,40.8875679 44.7270684,40.8520569 44.7329904,40.8111653 C44.7371852,40.7821108 44.7287956,40.7554237 44.7085621,40.7336866 L39.0732695,34.8035508 C39.0291012,34.7566331 38.96692,34.728009 38.897583,34.7228438 C38.8282461,34.7163872 38.7608832,34.7364025 38.7083253,34.7757876 L38.6000017,34.856925 C38.5469503,34.8965253 38.515613,34.9518365 38.5111714,35.0123129 C38.5067299,35.0730046 38.5301712,35.1311136 38.5765604,35.1760943 L44.4699542,40.9075833 C44.4970967,40.9293204 44.5289276,40.9381443 44.5607584,40.9381443 L44.5607584,40.9381443 Z M42.5027701,42.3195876 C42.550887,42.3195876 42.5951443,42.2935728 42.6262788,42.2439821 C42.6795419,42.1605178 42.6682203,42.0789505 42.5972028,42.0271919 L37.6252049,38.2257763 C37.5716845,38.1837732 37.5063278,38.167243 37.4407138,38.1788954 C37.3750998,38.1902769 37.3182343,38.2284862 37.2804097,38.2862066 L37.1705384,38.4544899 C37.1327139,38.5124813 37.1193338,38.5818541 37.1327139,38.650685 C37.1458367,38.7192449 37.1841759,38.7777783 37.2400121,38.8154456 L42.4178578,42.2930308 C42.4461619,42.310645 42.4752379,42.3195876 42.5027701,42.3195876 L42.5027701,42.3195876 Z M41.8292398,45.0824742 C41.8858284,45.0824742 41.9300111,45.0410032 41.9517759,44.9633852 C41.9737584,44.8852068 41.990735,44.7742438 41.8825637,44.7117571 L33.9840995,40.953308 C33.9377403,40.9308913 33.8872459,40.9334131 33.8421927,40.9603133 C33.7969218,40.9872134 33.7629686,41.0354094 33.7464273,41.0956544 L33.6809151,41.3357939 C33.6641562,41.3960389 33.6672033,41.4607673 33.6891858,41.5182102 C33.7109506,41.5756532 33.7490391,41.618245 33.7960512,41.6384201 L41.7711277,45.0693044 C41.7915866,45.0782711 41.811175,45.0824742 41.8292398,45.0824742 L41.8292398,45.0824742 Z M41.0832218,47.153539 C41.0893984,47.1542725 41.0953374,47.1546392 41.1012764,47.1546392 C41.1639923,47.1546392 41.2029521,47.1187013 41.2250452,47.0867973 C41.2587787,47.0380246 41.2765957,46.9676157 41.2765957,46.8829051 C41.2765957,46.7343865 41.1998638,46.6449086 41.1290709,46.6361075 L36.0360198,45.7761663 C35.9668898,45.7629646 35.8996603,45.7941352 35.8459717,45.8623438 C35.7925207,45.9305523 35.759975,46.026631 35.7547487,46.1337111 L35.7454838,46.3156006 C35.7400199,46.4226807 35.7625882,46.525727 35.8086748,46.6053036 C35.854999,46.6856137 35.9184276,46.7321862 35.98732,46.7358533 L41.0832218,47.153539 Z M33.13793,49.199377 C33.1775739,49.2175094 33.2232997,49.2268041 33.2699264,49.2268041 C33.2865948,49.2268041 33.3030381,49.2258899 33.3197066,49.2232996 L41.1428578,48.0861421 C41.1892593,48.0801995 41.2275517,48.0637433 41.2507524,48.0402779 C41.2759804,48.0143745 41.2827379,47.9819191 41.2710249,47.9433688 C41.2597624,47.906647 41.2338587,47.8786104 41.196242,47.8621542 C41.1588505,47.8460027 41.1110976,47.8414315 41.0583891,47.8487454 L33.1773487,48.7675528 C33.114504,48.7745619 33.0593178,48.7977226 33.0221516,48.8327683 C32.9852106,48.8681188 32.9710199,48.9109355 32.9827329,48.9560378 L33.0372433,49.0940875 C33.0485058,49.1373613 33.0840953,49.174845 33.13793,49.199377 L33.13793,49.199377 Z M44.7337199,52.1361325 C44.7308624,52.0925007 44.7099075,52.0497778 44.6791896,52.0247804 C44.623945,51.9800123 44.5396492,51.9770581 44.4844046,52.0218262 L38.5579872,57.7194178 C38.4877408,57.8128172 38.4965514,57.9391678 38.5784658,58.0137055 L38.7294361,58.1502823 C38.7692027,58.1864149 38.8208755,58.2061856 38.8756439,58.2061856 L38.8839783,58.2061856 C38.9416042,58.2041403 38.9949438,58.1802792 39.0337579,58.1396016 L44.7091932,52.216806 C44.7272906,52.1977171 44.735863,52.1690837 44.7337199,52.1361325 L44.7337199,52.1361325 Z M42.0561506,56.7078927 L42.2075584,56.8019967 C42.2319974,56.8171604 42.2585367,56.8247423 42.285267,56.8247423 C42.3026416,56.8247423 42.3202072,56.8216203 42.3373909,56.8149305 C42.3805412,56.7982058 42.4154814,56.7627496 42.4349563,56.7148056 L44.0328519,52.8518576 C44.0441168,52.8242062 44.0456442,52.7958858 44.0370524,52.7693494 C44.021587,52.7209594 43.9782459,52.6975449 43.9700359,52.693308 C43.9253582,52.6705624 43.8648333,52.6750223 43.8335207,52.7301022 L41.9910434,56.4385144 C41.9679408,56.4844514 41.962022,56.5381933 41.9744325,56.5892592 C41.986652,56.6407711 42.0158643,56.6826942 42.0561506,56.7078927 L42.0561506,56.7078927 Z M45.5630743,60.2558543 L45.6082949,60.2712929 C45.6222443,60.276145 45.6361937,60.2783505 45.6501432,60.2783505 C45.6837137,60.2783505 45.7165178,60.2648969 45.7456429,60.2384308 C45.786878,60.2007165 45.8149301,60.1420499 45.8248939,60.073679 L46.8071774,53.5308086 C46.8160682,53.4690542 46.7792786,53.3920819 46.7329849,53.3748789 C46.7099914,53.3660568 46.6836255,53.3731145 46.6603254,53.3929641 C46.6387115,53.4114904 46.6233825,53.4390593 46.6184772,53.4679515 L45.4317047,59.9387017 C45.4191349,60.0064109 45.4258796,60.0769873 45.4508659,60.1374183 C45.4760055,60.1974082 45.5157077,60.2395335 45.5630743,60.2558543 L45.5630743,60.2558543 Z M48.5140466,54.1093791 C48.4794779,54.0790922 48.4301339,54.0618557 48.3791172,54.0618557 L48.3766082,54.0618557 C48.3032892,54.0625944 48.2366609,54.1000222 48.2110131,54.1512392 L48.1987468,54.1512392 L48.1914894,59.3775899 C48.190941,59.4342241 48.2157524,59.487411 48.2611935,59.5273011 C48.3055194,59.5662064 48.3643419,59.5876289 48.4267886,59.5876289 L48.4318066,59.5876289 L48.6517637,59.5839353 C48.7167194,59.5827042 48.776657,59.5588193 48.8204254,59.516713 C48.8641938,59.4746067 48.8862174,59.4201887 48.8825933,59.3635545 L48.5572574,54.1933455 C48.5572574,54.163551 48.5419246,54.1335102 48.5140466,54.1093791 L48.5140466,54.1093791 Z M54.7761168,58.1973097 C54.7938326,58.2032269 54.8119254,58.2061856 54.8296412,58.2061856 C54.8665806,58.2061856 54.9029546,58.1933648 54.9355593,58.1679699 L55.004538,58.1144681 C55.0539162,58.0760059 55.0884055,58.0146144 55.1010328,57.9408952 C55.1138485,57.8679157 55.1034828,57.7932103 55.071632,57.730586 L52.5654064,52.7472689 C52.5429789,52.7028894 52.5148974,52.6878497 52.4952969,52.6826721 C52.4536459,52.67281 52.4180257,52.6974653 52.4001214,52.7134912 C52.3661975,52.7443102 52.346597,52.7790741 52.3415084,52.8163035 C52.3379275,52.8449036 52.3433931,52.8732571 52.3554549,52.8949538 L54.648902,58.0688559 C54.676795,58.132713 54.7218385,58.1780786 54.7761168,58.1973097 L54.7761168,58.1973097 Z M52.6102449,60.2530427 C52.6357915,60.2696866 52.6639124,60.2783505 52.6926275,60.2783505 C52.7074801,60.2783505 52.7225308,60.2758425 52.7371854,60.2712826 L52.9090799,60.2167911 C52.9534397,60.2028832 52.9900762,60.1691395 53.0118601,60.1224 C53.0336439,60.0756604 53.0378027,60.0223089 53.0237422,59.9721493 L51.2057802,53.4418336 C51.1952843,53.40467 51.1622125,53.3476705 51.0528971,53.3814142 C51.029925,53.3887101 50.9885357,53.4071779 50.9687322,53.4493575 C50.956454,53.4742093 50.9542756,53.503165 50.961801,53.5318928 L52.531625,60.1358518 C52.5433091,60.1857834 52.5714301,60.227279 52.6102449,60.2530427 L52.6102449,60.2530427 Z M25.4401245,60.0018783 C25.2852362,60.105117 25.4222442,60.3469249 25.586296,60.2597456 C27.3694104,59.3108675 32.7214354,56.3224521 36.5069214,54.2842913 C40.8674831,51.936644 44.7157737,49.3226409 46.0818297,48.3423323 C46.1658672,48.2817656 46.0842882,48.1505378 45.9951102,48.2023866 C45.0586287,48.7500104 42.516048,50.3832461 41.2572739,51.069898 C39.9553635,51.78018 37.763684,53.0309739 36.2051911,53.9252502 C36.0181184,54.032389 35.8031076,54.0495954 36.1464096,53.8265999 C38.2308072,52.4732557 43.3749736,49.0987277 45.1446777,47.9681495 C45.2579942,47.895653 45.2141875,47.7951674 45.0693569,47.874317 C42.9266248,49.0443553 37.0580821,52.6847802 34.9182555,54.0222945 C32.9114138,55.2767591 27.691256,58.5021646 25.4401245,60.0018783 L25.4401245,60.0018783 Z M47.4896996,20.9072165 C48.1147588,20.9072165 48.3195367,20.2612933 48.1150082,19.6326152 C47.9795704,19.2166261 47.7089442,18.7167111 47.5640283,18.2051078 C47.5405823,18.1225231 47.3871859,18.1248225 47.3647377,18.2075987 C47.224062,18.7308904 46.9753852,19.3185636 46.8646405,19.7199902 C46.7055073,20.2961667 46.8758646,20.9072165 47.4896996,20.9072165 L47.4896996,20.9072165 Z M46.3278939,19.046762 C46.6901882,18.2643686 47.3420949,16.3567152 47.5240224,15.432331 C47.5376224,15.3638911 47.6352746,15.3647799 47.6490975,15.4332199 C47.7639169,16.0007384 48.0145131,17.4846417 48.6539346,18.9049935 C49.3421823,20.4337827 48.3391288,21.6017065 47.4959307,21.5979381 C46.1856516,21.5979381 45.8403015,20.0995823 46.3278939,19.046762 L46.3278939,19.046762 Z M46.8090355,43.5505805 C46.8738544,42.8016488 46.7127256,41.1475543 46.433768,39.7285843 C45.6039808,35.5065653 46.7998506,32.7799651 47.0171384,29.8420194 C47.023699,29.7524588 47.1759054,29.7466806 47.1921757,29.8353524 C47.6367233,32.2899371 48.1208971,35.0916527 48.1208971,36.7193013 C48.1208971,37.8491436 47.8957366,41.1048852 47.5850256,42.8989877 C47.5726917,42.9694362 47.7474666,43.0092162 47.766886,42.9401012 C48.386471,40.7486426 48.8829787,37.5355701 48.8829787,35.9323674 C48.8829787,34.2267144 47.3614397,27.5781123 47.0278978,22.4309293 C47.0158262,22.2475855 46.8444628,22.232029 46.8163834,22.4395965 C46.3211878,26.0924718 44.7340426,33.6033455 44.7340426,35.9374788 C44.7340426,39.5094607 45.9251887,41.9204873 46.4411159,43.5836935 C46.4951754,43.7581479 46.79329,43.7305908 46.8090355,43.5505805 L46.8090355,43.5505805 Z M68.4468707,59.9253612 C69.032344,60.102241 69.6611325,60.1541463 70.2141707,60.2718602 C70.3283093,60.2961135 70.3552017,60.2489971 70.2659026,60.1868961 C69.6311609,59.7463187 69.2528203,59.2169152 68.7482294,59.0417347 C68.1167722,58.8223729 67.7205718,58.8660908 67.5916527,59.0795824 C67.4259876,59.3540936 67.8111026,59.7331879 68.4468707,59.9253612 L68.4468707,59.9253612 Z M67.0361924,57.5024144 C67.5395503,56.569258 68.4166373,56.7539689 69.085368,57.1433526 C70.0072482,57.6803028 71.1589763,59.6502154 72.3607009,60.7890553 C72.4344513,60.8590484 72.3735959,60.9960023 72.2833308,60.964417 C70.9456431,60.4967017 69.1464497,60.5305612 68.16756,60.1237424 C67.563078,59.872576 66.4265072,58.6331685 67.0361924,57.5024144 L67.0361924,57.5024144 Z M65.499903,29.1492466 C65.4349979,28.9492331 65.4692918,28.568818 66.3425186,28.1706657 C67.1338085,27.8100068 67.780558,27.7905391 68.15756,27.8277442 C68.2673463,27.8385596 68.275632,27.9347449 68.1695283,27.9556547 C66.5439086,28.276657 65.8877225,28.8955885 65.671142,29.1646766 C65.6317847,29.2134182 65.517165,29.2026027 65.499903,29.1492466 L65.499903,29.1492466 Z" id="Fill-1" fill="#64C5B7"></path>
                            </g>
                        </g>
                    </g>
                </g>
            </g>
        </g>
    </g>
</svg>